<svg width="350" height="333" viewBox="0 0 350 333" fill="none" xmlns="http://www.w3.org/2000/svg">
<g clip-path="url(#clip0_123_2)">
<path d="M212.773 78.8171H210.95V28.8941C210.95 21.2309 207.906 13.8816 202.487 8.4629C197.069 3.0442 189.719 9.66944e-06 182.056 0H76.2875C72.4931 -9.57547e-06 68.7358 0.747348 65.2302 2.1994C61.7246 3.65146 58.5394 5.77977 55.8563 8.46283C53.1732 11.1459 51.0449 14.3311 49.5928 17.8367C48.1408 21.3423 47.3934 25.0996 47.3934 28.894V302.776C47.3934 306.57 48.1407 310.327 49.5928 313.833C51.0449 317.338 53.1732 320.524 55.8562 323.207C58.5393 325.89 61.7246 328.018 65.2301 329.47C68.7357 330.922 72.493 331.67 76.2874 331.67H182.056C189.719 331.67 197.069 328.626 202.487 323.207C207.906 317.788 210.95 310.439 210.95 302.776V114.353H212.773L212.773 78.8171Z" fill="#3F3D56"/>
<path d="M183.222 7.51721H169.416C170.051 9.07382 170.293 10.7627 170.121 12.435C169.95 14.1074 169.37 15.7118 168.432 17.1071C167.494 18.5024 166.228 19.6457 164.744 20.4363C163.261 21.2268 161.605 21.6404 159.924 21.6405H99.3306C97.6495 21.6404 95.9942 21.2268 94.5106 20.4363C93.027 19.6457 91.7605 18.5025 90.8228 17.1072C89.8851 15.7119 89.3049 14.1074 89.1334 12.435C88.9618 10.7627 89.2042 9.07382 89.8391 7.51721H76.9439C71.2212 7.51721 65.7328 9.79057 61.6862 13.8372C57.6395 17.8838 55.3662 23.3722 55.3662 29.095V302.575C55.3662 305.408 55.9243 308.214 57.0087 310.832C58.093 313.45 59.6825 315.829 61.6861 317.832C63.6898 319.836 66.0685 321.426 68.6865 322.51C71.3044 323.594 74.1103 324.152 76.9439 324.152H183.222C186.056 324.152 188.862 323.594 191.479 322.51C194.097 321.426 196.476 319.836 198.48 317.832C200.483 315.829 202.073 313.45 203.157 310.832C204.242 308.214 204.8 305.408 204.8 302.575V302.575V29.0949C204.8 26.2613 204.242 23.4554 203.157 20.8375C202.073 18.2196 200.483 15.8408 198.48 13.8372C196.476 11.8335 194.097 10.2441 191.479 9.15971C188.862 8.07533 186.056 7.51721 183.222 7.51722V7.51721Z" fill="white"/>
<path d="M129.899 58.446H68.1003V164.019H129.899V58.446Z" fill="#E6E6E6"/>
<path d="M191.88 172.289H140.517V291.812H191.88V172.289Z" fill="#E6E6E6"/>
<path d="M192.066 58.446H140.567V87.5062H192.066V58.446Z" fill="#E6E6E6"/>
<path d="M192.066 95.5989H140.567V126.866H192.066V95.5989Z" fill="#FF7DB9"/>
<path d="M192.066 134.959H140.567V164.019H192.066V134.959Z" fill="#E6E6E6"/>
<path d="M129.976 172.289H68.1767V218.297H129.976V172.289Z" fill="#E6E6E6"/>
<path d="M129.976 227.215H68.1767V291.908H129.976V227.215Z" fill="#E6E6E6"/>
<path d="M270.348 131.241C270.348 141.287 261.059 139.768 249.599 139.768C238.14 139.768 228.85 141.287 228.85 131.241C228.85 121.194 233.388 103.386 249.599 103.386C266.369 103.386 270.348 121.194 270.348 131.241Z" fill="#191A2C"/>
<path d="M191.051 112.97C190.681 113.72 190.48 114.541 190.461 115.376C190.442 116.212 190.607 117.041 190.944 117.806C191.281 118.571 191.781 119.253 192.41 119.803C193.038 120.354 193.78 120.76 194.582 120.993L195.628 141.28L204.13 135.023L201.834 116.717C202.136 115.343 201.923 113.906 201.236 112.678C200.549 111.45 199.436 110.517 198.107 110.055C196.778 109.593 195.325 109.635 194.025 110.172C192.725 110.709 191.667 111.705 191.051 112.97V112.97Z" fill="#FFB8B8"/>
<path d="M284.253 227.621C284.714 226.924 285.017 226.134 285.14 225.308C285.263 224.481 285.204 223.638 284.966 222.837C284.728 222.036 284.317 221.296 283.762 220.671C283.208 220.046 282.523 219.55 281.756 219.218L283.263 198.96L274.044 204.102L274.026 222.551C273.554 223.877 273.584 225.329 274.112 226.634C274.639 227.938 275.627 229.004 276.888 229.628C278.148 230.253 279.594 230.394 280.952 230.024C282.309 229.654 283.484 228.799 284.253 227.621V227.621Z" fill="#FFB8B8"/>
<path d="M241.795 325.138H248.764L252.079 298.256L241.794 298.257L241.795 325.138Z" fill="#FFB8B8"/>
<path d="M240.017 322.862L253.742 322.862H253.743C254.891 322.862 256.029 323.088 257.09 323.528C258.151 323.967 259.115 324.611 259.927 325.424C260.74 326.236 261.384 327.2 261.823 328.261C262.263 329.322 262.489 330.46 262.489 331.608V331.893L240.017 331.894L240.017 322.862Z" fill="#191A2C"/>
<path d="M286.135 325.138H293.104L296.42 298.256L286.134 298.257L286.135 325.138Z" fill="#FFB8B8"/>
<path d="M284.357 322.862L298.082 322.862H298.083C299.232 322.862 300.369 323.088 301.43 323.528C302.491 323.967 303.456 324.611 304.268 325.424C305.08 326.236 305.724 327.2 306.164 328.261C306.603 329.322 306.83 330.46 306.83 331.608V331.893L284.358 331.894L284.357 322.862Z" fill="#191A2C"/>
<path d="M282.157 216.459L281.854 216.404C279.316 215.944 276.747 215.48 274.488 214.994L274.264 214.946L274.263 214.717C274.224 204.413 274.186 194.111 274.129 183.715C268.733 172.84 266.465 160.679 267.577 148.59L267.589 148.462L267.694 148.387C268.677 147.704 269.825 147.296 271.018 147.204C272.212 147.111 273.409 147.339 274.485 147.862C275.538 148.438 276.439 149.257 277.111 150.251C277.783 151.246 278.208 152.386 278.35 153.578C280.405 164.774 282.531 176.368 284.903 187.793L284.912 187.835L284.908 187.877C284.029 197.195 283.121 206.83 282.188 216.153L282.157 216.459Z" fill="#FF7DB9"/>
<path d="M277.614 315.557L277.559 315.295C274.298 299.873 271.151 287.315 268.107 275.17C264.46 260.615 261.003 246.823 257.514 228.975C257.993 251.482 259.106 267.653 260.386 286.239C260.963 294.632 261.561 303.311 262.167 313.442L262.185 313.751L261.876 313.743C250.968 313.464 239.793 312.79 228.986 312.139L228.7 312.122L228.719 311.836C230.766 281.677 231.407 262.079 231.875 247.769C232.863 217.579 233.014 212.938 244.26 187.388C244.686 186.419 247.23 183.555 250.026 183.991L272.152 187.434L272.191 187.629C272.815 190.774 275.913 200.317 280.202 213.525C289.369 241.76 303.222 284.43 307.55 309.864L307.599 310.152L307.309 310.193C301.024 311.086 296.5 312.017 292.124 312.916C287.985 313.768 283.705 314.648 277.879 315.517L277.614 315.557Z" fill="#191A2C"/>
<path d="M258.384 195.416C252.478 195.416 246.641 193.367 242.457 189.377C241.803 188.997 241.25 188.465 240.844 187.826C240.439 187.187 240.193 186.461 240.127 185.707C240.019 185.016 240.065 184.311 240.259 183.64C240.453 182.968 240.792 182.348 241.252 181.821C237.149 176.856 232.913 171.723 228.859 166.497L228.747 166.353L228.877 166.105C231.529 161.037 234.272 155.796 236.907 150.618C237.09 150.167 237.392 149.773 237.78 149.479C238.169 149.185 238.629 149.001 239.113 148.947C239.534 148.867 239.966 148.875 240.384 148.968C240.802 149.061 241.196 149.239 241.543 149.49L241.548 149.364C241.658 146.742 241.768 144.121 241.882 141.636L241.894 141.371L242.159 141.365C247.224 141.253 252.462 141.137 257.606 140.832L257.802 140.821L260.354 146.513C264.498 146.11 268.668 146.957 272.328 148.943L272.496 149.033L272.477 149.223C271.45 159.005 271.674 168.878 273.141 178.604C273.061 183.044 272.976 187.583 272.075 191.201L272.048 191.307L271.958 191.368C267.936 194.037 263.21 195.446 258.384 195.416V195.416Z" fill="#FF7DB9"/>
<path d="M236.646 170.722L236.307 170.566C232.339 168.575 228.358 166.367 224.509 164.231L223.977 164.127C213.841 162.093 208.258 160.972 199.114 155.61L199.044 155.569L199.007 155.497C194.428 146.75 193.151 139.105 194.294 127.288L194.317 127.051L194.554 127.032C195.545 126.952 197.161 126.898 198.723 126.846C200.243 126.795 201.815 126.742 202.779 126.667L203.002 126.649L203.071 126.862C204.27 130.562 205.287 134.014 206.365 137.669C207.473 141.425 208.618 145.308 210.012 149.622C215.118 151.089 228.805 150.651 233.061 150.071C235.517 149.819 237.998 150.954 239.71 153.094L239.789 153.193L239.769 153.318C238.832 159.036 237.756 164.788 236.716 170.35L236.646 170.722Z" fill="#FF7DB9"/>
<path d="M261.595 131.949C265.294 125.183 262.807 116.699 256.041 113.001C249.275 109.302 240.792 111.788 237.093 118.555C233.394 125.321 235.881 133.804 242.647 137.503C249.413 141.201 257.896 138.715 261.595 131.949Z" fill="#FFB8B8"/>
<path d="M233.398 124.419H238.92L241.356 117.597L241.844 124.419H244.483L245.904 120.44L246.188 124.419H265.8C265.8 120.499 264.243 116.74 261.471 113.968C258.7 111.196 254.94 109.639 251.02 109.639H248.178C244.258 109.639 240.499 111.196 237.727 113.968C234.955 116.74 233.398 120.499 233.398 124.419Z" fill="#191A2C"/>
<path d="M349.544 332.162H0.455729C0.334862 332.162 0.218945 332.114 0.13348 332.028C0.0480138 331.943 0 331.827 0 331.706C0 331.585 0.0480138 331.469 0.13348 331.384C0.218945 331.298 0.334862 331.25 0.455729 331.25H349.544C349.665 331.25 349.781 331.298 349.867 331.384C349.952 331.469 350 331.585 350 331.706C350 331.827 349.952 331.943 349.867 332.028C349.781 332.114 349.665 332.162 349.544 332.162Z" fill="#3F3D56"/>
</g>
<defs>
<clipPath id="clip0_123_2">
<rect width="350" height="332.162" fill="white"/>
</clipPath>
</defs>
</svg>
