<svg width="15" height="15" viewBox="0 0 15 15" fill="none" xmlns="http://www.w3.org/2000/svg">
<path d="M4.61244 13.1312C4.68501 13.204 4.77122 13.2617 4.86613 13.3011C4.96105 13.3404 5.0628 13.3607 5.16556 13.3607C5.26832 13.3607 5.37008 13.3404 5.46499 13.3011C5.5599 13.2617 5.64612 13.204 5.71869 13.1312L10.9124 7.93745C10.9704 7.87962 11.0163 7.81094 11.0477 7.73534C11.0791 7.65973 11.0952 7.57868 11.0952 7.49682C11.0952 7.41497 11.0791 7.33391 11.0477 7.25831C11.0163 7.1827 10.9704 7.11402 10.9124 7.0562L5.71869 1.86244C5.41244 1.55619 4.91869 1.55619 4.61244 1.86244C4.30619 2.16869 4.30619 2.66244 4.61244 2.96869L9.13744 7.49995L4.60619 12.0312C4.30619 12.3312 4.30619 12.8312 4.61244 13.1312Z" fill="white"/>
</svg>
