<svg width="21" height="28" viewBox="0 0 21 28" fill="none" xmlns="http://www.w3.org/2000/svg">
<path fill-rule="evenodd" clip-rule="evenodd" d="M2.1875 27C1.532 27 1 26.4486 1 25.7692V12.2308C1 11.5514 1.532 11 2.1875 11H18.8125C19.468 11 20 11.5514 20 12.2308V25.7692C20 26.4486 19.468 27 18.8125 27H2.1875Z" stroke="black" stroke-linecap="round"/>
<path d="M16 11C16 10.3853 16 7.49706 16 6.88235C16 3.63353 13.3138 1 10 1C6.6862 1 4 3.63353 4 6.88235C4 7.49706 4 10.3853 4 11" stroke="black" stroke-linecap="round"/>
<path d="M12 17.8C12 16.8058 11.1047 16 10 16C8.89533 16 8 16.8058 8 17.8C8 18.331 8.26067 18.8038 8.66667 19.1332V20.8C8.66667 21.4624 9.264 22 10 22C10.736 22 11.3333 21.4624 11.3333 20.8V19.1332C11.7393 18.8038 12 18.331 12 17.8Z" stroke="black"/>
</svg>
