<svg width="400" height="312" viewBox="0 0 400 312" fill="none" xmlns="http://www.w3.org/2000/svg">
<g clip-path="url(#clip0_123_26)">
<path opacity="0.1" d="M324.462 41.2407V207.683C324.463 213.099 323.398 218.463 321.326 223.467C319.254 228.471 316.216 233.018 312.386 236.848C308.556 240.678 304.009 243.716 299.005 245.788C294.001 247.86 288.637 248.925 283.221 248.924H116.779C107.46 248.936 98.4133 245.782 91.1233 239.977C88.1061 237.573 85.4374 234.762 83.1937 231.624C78.2131 224.635 75.5369 216.266 75.5381 207.683V41.2407C75.5381 40.137 75.5812 39.045 75.6673 37.9648C75.8315 35.855 76.1599 33.7612 76.6497 31.7025C78.798 22.6749 83.9273 14.6352 91.2089 8.8826C98.4906 3.13002 107.499 0.000600694 116.779 0H283.221C292.501 0.000600694 301.509 3.13002 308.791 8.8826C316.073 14.6352 321.202 22.6749 323.35 31.7025C323.84 33.7612 324.168 35.855 324.333 37.9648C324.419 39.045 324.462 40.137 324.462 41.2407Z" fill="#FF7DB9"/>
<path opacity="0.1" d="M203.131 131.115H324.462V137.378H203.131V180.822H324.462V187.084H203.131V248.924H196.869V187.084H75.5381V180.822H196.869V137.378H75.5381V131.115H196.869V87.6712H75.5381V81.409H196.869V37.9648H75.6673C75.8315 35.855 76.1599 33.7612 76.6497 31.7025H196.869V0H203.131V31.7025H323.35C323.84 33.7612 324.168 35.855 324.333 37.9648H203.131V81.409H324.462V87.6712H203.131V131.115Z" fill="#FF7DB9"/>
<path opacity="0.1" d="M200 311.155C310.457 311.155 400 297.106 400 279.777C400 262.448 310.457 248.399 200 248.399C89.5431 248.399 0 262.448 0 279.777C0 297.106 89.5431 311.155 200 311.155Z" fill="#FF7DB9"/>
<path d="M353.307 268.497C358.776 268.497 363.209 267.644 363.209 266.591C363.209 265.538 358.776 264.685 353.307 264.685C347.838 264.685 343.405 265.538 343.405 266.591C343.405 267.644 347.838 268.497 353.307 268.497Z" fill="#FF7DB9"/>
<path d="M353.143 267.295C353.781 267.295 354.297 266.619 354.297 265.785C354.297 264.95 353.781 264.274 353.143 264.274C352.505 264.274 351.988 264.95 351.988 265.785C351.988 266.619 352.505 267.295 353.143 267.295Z" fill="#3F3D56"/>
<path d="M353.143 265.448C353.781 265.448 354.297 264.772 354.297 263.937C354.297 263.103 353.781 262.427 353.143 262.427C352.505 262.427 351.988 263.103 351.988 263.937C351.988 264.772 352.505 265.448 353.143 265.448Z" fill="#3F3D56"/>
<path d="M353.143 263.605C353.781 263.605 354.297 262.928 354.297 262.094C354.297 261.26 353.781 260.583 353.143 260.583C352.505 260.583 351.988 261.26 351.988 262.094C351.988 262.928 352.505 263.605 353.143 263.605Z" fill="#3F3D56"/>
<path d="M353.143 261.761C353.781 261.761 354.297 261.085 354.297 260.251C354.297 259.416 353.781 258.74 353.143 258.74C352.505 258.74 351.988 259.416 351.988 260.251C351.988 261.085 352.505 261.761 353.143 261.761Z" fill="#3F3D56"/>
<path d="M353.143 259.914C353.781 259.914 354.297 259.237 354.297 258.403C354.297 257.569 353.781 256.892 353.143 256.892C352.505 256.892 351.988 257.569 351.988 258.403C351.988 259.237 352.505 259.914 353.143 259.914Z" fill="#3F3D56"/>
<path d="M353.143 258.07C353.781 258.07 354.297 257.394 354.297 256.56C354.297 255.725 353.781 255.049 353.143 255.049C352.505 255.049 351.988 255.725 351.988 256.56C351.988 257.394 352.505 258.07 353.143 258.07Z" fill="#3F3D56"/>
<path d="M353.143 256.227C353.781 256.227 354.297 255.551 354.297 254.716C354.297 253.882 353.781 253.206 353.143 253.206C352.505 253.206 351.988 253.882 351.988 254.716C351.988 255.551 352.505 256.227 353.143 256.227Z" fill="#3F3D56"/>
<path d="M357.456 242.094C357.615 241.893 357.758 241.681 357.887 241.46L354.857 240.963L358.133 240.986C358.447 240.302 358.618 239.562 358.636 238.809C358.654 238.057 358.519 237.309 358.239 236.611L353.843 238.892L357.898 235.91C357.52 235.25 357.009 234.675 356.399 234.222C355.788 233.768 355.09 233.445 354.349 233.274C353.608 233.103 352.839 233.086 352.092 233.225C351.344 233.365 350.633 233.657 350.003 234.084C349.373 234.511 348.838 235.063 348.432 235.706C348.026 236.349 347.756 237.069 347.641 237.821C347.526 238.573 347.567 239.34 347.762 240.076C347.957 240.811 348.302 241.498 348.775 242.094C348.53 242.406 348.319 242.743 348.145 243.1L352.059 245.143L347.867 243.734C347.571 244.604 347.498 245.534 347.653 246.44C347.808 247.345 348.187 248.198 348.755 248.92C348.115 249.734 347.716 250.713 347.605 251.743C347.494 252.774 347.676 253.815 348.128 254.747C348.581 255.679 349.287 256.465 350.166 257.015C351.044 257.565 352.059 257.857 353.096 257.857C354.132 257.857 355.148 257.565 356.026 257.015C356.905 256.465 357.611 255.679 358.064 254.747C358.516 253.815 358.698 252.774 358.587 251.743C358.476 250.713 358.077 249.734 357.436 248.92C358.202 247.947 358.618 246.745 358.618 245.507C358.618 244.269 358.202 243.067 357.436 242.094H357.456Z" fill="#FF7DB9"/>
<path opacity="0.1" d="M347.593 245.507C347.589 246.744 348.003 247.947 348.767 248.92C348.126 249.734 347.728 250.713 347.617 251.743C347.506 252.774 347.687 253.815 348.14 254.747C348.593 255.679 349.299 256.465 350.177 257.015C351.056 257.565 352.071 257.857 353.108 257.857C354.144 257.857 355.16 257.565 356.038 257.015C356.916 256.465 357.622 255.679 358.075 254.747C358.528 253.815 358.709 252.774 358.598 251.743C358.488 250.713 358.089 249.734 357.448 248.92C358.196 247.98 347.593 244.888 347.593 245.507Z" fill="black"/>
<path d="M316.83 218.004H80.8219V272.211H316.83V218.004Z" fill="#191A2C"/>
<path d="M82.3874 161.84L60.0782 178.669L77.2994 194.325L87.0841 178.669L100.391 161.84H82.3874Z" fill="#191A2C"/>
<path d="M312.916 182.192L309.785 178.669L289.824 167.319L308.219 166.928L336.791 178.669L325.049 186.106L312.916 182.192Z" fill="#191A2C"/>
<path d="M80.8219 182.975L100.391 161.84V210.372L87.0842 221.331L78.865 209.98L80.8219 182.975Z" fill="#191A2C"/>
<path d="M313.307 191.585L309.785 178.669L303.131 170.059L289.824 167.319V221.331H316.83L313.307 191.585Z" fill="#191A2C"/>
<path d="M104.716 147.358H287.456C289.07 147.358 290.618 147.999 291.759 149.141C292.901 150.282 293.542 151.83 293.542 153.444V209.198H98.6301V153.444C98.6301 151.83 99.2713 150.282 100.413 149.141C101.554 147.999 103.102 147.358 104.716 147.358V147.358Z" fill="#191A2C"/>
<path d="M87.0842 221.331L100.391 204.892H289.824L309.785 221.331H87.0842Z" fill="#191A2C"/>
<path opacity="0.05" d="M87.0842 221.331L100.391 204.892H289.824L309.785 221.331H87.0842Z" fill="black"/>
<path d="M87.0841 178.669H60.0782V272.211H87.0841V178.669Z" fill="#191A2C"/>
<path opacity="0.05" d="M87.0841 178.669H60.0782V272.211H87.0841V178.669Z" fill="white"/>
<path d="M336.791 178.669H309.785V272.211H336.791V178.669Z" fill="#191A2C"/>
<path opacity="0.05" d="M336.791 178.669H309.785V272.211H336.791V178.669Z" fill="white"/>
<path d="M171.311 162.583C188.604 162.583 202.622 144.096 202.622 121.292C202.622 98.4869 188.604 80 171.311 80C154.018 80 140 98.4869 140 121.292C140 144.096 154.018 162.583 171.311 162.583Z" fill="#2F2E41"/>
<path d="M185.91 102.153H151.076V150.685H185.91V102.153Z" fill="#2F2E41"/>
<path opacity="0.1" d="M185.91 102.153H151.076V150.685H185.91V102.153Z" fill="black"/>
<path d="M153.605 130.615C152.515 131.942 151.108 132.973 149.514 133.612C147.92 134.251 146.19 134.477 144.485 134.27C144.329 136.705 145.98 138.842 147.542 140.716L159.765 155.382C159.813 155.498 159.892 155.599 159.994 155.673C160.095 155.747 160.215 155.792 160.341 155.802C160.466 155.813 160.592 155.789 160.704 155.732C160.817 155.676 160.912 155.59 160.978 155.483L179.648 137.773C177.785 138.556 175.581 137.315 174.56 135.57C173.538 133.824 173.436 131.726 173.342 129.699C173.207 126.672 173.076 123.648 172.951 120.626C172.92 119.953 172.853 119.209 172.356 118.755C171.969 118.464 171.508 118.289 171.025 118.251C168.078 117.746 158.892 115.119 157.19 118.219C156.407 119.632 156.759 122.388 156.407 123.984C155.879 126.352 155.131 128.712 153.605 130.615Z" fill="#FBBEBE"/>
<path opacity="0.1" d="M153.605 130.615C152.515 131.942 151.108 132.973 149.514 133.612C147.92 134.251 146.19 134.477 144.485 134.27C144.329 136.705 145.98 138.842 147.542 140.716L159.765 155.382C159.813 155.498 159.892 155.599 159.994 155.673C160.095 155.747 160.215 155.792 160.341 155.802C160.466 155.813 160.592 155.789 160.704 155.732C160.817 155.676 160.912 155.59 160.978 155.483L179.648 137.773C177.785 138.556 175.581 137.315 174.56 135.57C173.538 133.824 173.436 131.726 173.342 129.699C173.207 126.672 173.076 123.648 172.951 120.626C172.92 119.953 172.853 119.209 172.356 118.755C171.969 118.464 171.508 118.289 171.025 118.251C168.078 117.746 158.892 115.119 157.19 118.219C156.407 119.632 156.759 122.388 156.407 123.984C155.879 126.352 155.131 128.712 153.605 130.615Z" fill="black"/>
<path d="M167.123 127.593C177.283 127.593 185.519 119.357 185.519 109.198C185.519 99.0382 177.283 90.8024 167.123 90.8024C156.964 90.8024 148.728 99.0382 148.728 109.198C148.728 119.357 156.964 127.593 167.123 127.593Z" fill="#FBBEBE"/>
<path d="M160.47 146.239L157.519 136.935C156.344 133.209 154.677 128.986 150.959 127.785C148.611 127.033 146.078 127.722 143.632 127.515C138.873 127.104 134.239 123.319 129.789 125.053C124.309 127.182 124.356 135.597 119.491 138.9C119.491 146.763 122.031 154.067 123.405 161.804C124.779 169.542 125.174 177.894 121.589 184.896C120.07 187.863 117.898 190.446 116.278 193.358C113.622 198.16 112.535 203.673 113.17 209.123C133.945 209.384 154.723 209.447 175.503 209.311C175.311 206.618 174.11 203.965 173.914 201.272C173.797 200.459 173.861 199.63 174.102 198.845C174.56 197.671 175.726 196.971 176.724 196.207C178.061 195.177 179.194 193.905 180.063 192.458C181.448 190.153 182.106 187.495 182.748 184.881L190.528 153.178C191.456 149.401 192.356 145.28 190.744 141.742C188.975 137.855 184.732 135.836 180.814 134.133C178.466 133.104 175.765 132.063 173.378 133.01C171.421 133.793 170.192 135.667 168.955 137.366C166.562 140.711 163.705 143.699 160.47 146.239V146.239Z" fill="#F86D70"/>
<path opacity="0.1" d="M119.284 141.691C118.673 143.977 119.014 146.419 118.564 148.736C117.808 152.614 114.978 155.699 113.084 159.159C110.148 164.531 109.405 170.831 111.01 176.74C111.487 178.466 112.337 180.313 114.012 180.947C115.209 181.405 116.548 181.119 117.828 181.233C119.519 181.382 121.276 182.219 122.838 181.554C124.767 180.732 125.151 178.223 125.362 176.137C125.849 171.299 126.89 166.533 128.466 161.933C130.031 157.331 132.18 152.763 132.149 147.898C132.125 144.47 127.734 147.624 124.869 145.593C121.636 143.315 120.344 137.742 119.284 141.691Z" fill="black"/>
<path d="M118.501 141.299C117.89 143.585 118.231 146.027 117.781 148.344C117.025 152.223 114.196 155.307 112.301 158.767C109.366 164.14 108.622 170.44 110.227 176.348C110.705 178.074 111.554 179.922 113.229 180.556C114.427 181.014 115.765 180.728 117.045 180.841C118.736 180.99 120.493 181.828 122.055 181.162C123.984 180.341 124.368 177.832 124.579 175.746C125.066 170.908 126.108 166.142 127.683 161.542C129.249 156.939 131.397 152.372 131.366 147.507C131.342 144.078 129.836 140.29 126.971 138.258C123.738 135.98 119.562 137.35 118.501 141.299Z" fill="#F86D70"/>
<path d="M145.284 119.777C147.632 118.462 149.945 117.037 152.364 115.816C156.145 113.926 160.395 112.45 163.37 109.554C163.523 109.408 163.711 109.303 163.916 109.25C164.121 109.197 164.336 109.198 164.541 109.252C164.746 109.305 164.933 109.411 165.086 109.557C165.239 109.704 165.351 109.887 165.413 110.09C166.693 114.258 168.207 118.351 169.949 122.348C171.452 125.793 173.127 129.174 174.254 132.759C175.037 135.252 175.526 137.847 176.501 140.247C177.773 143.378 179.804 146.164 181.82 148.896C182.56 149.906 183.323 150.931 184.36 151.636C185.816 152.626 187.988 153.26 188.141 155.014C186.251 156.38 183.679 155.929 181.35 155.91C179.022 155.89 176.654 156.372 174.352 156.939C171.664 157.553 169.042 158.428 166.524 159.554C164.074 160.708 161.828 162.227 159.558 163.738L138.748 177.699C137.217 175.949 137.276 173.393 136.947 171.076C136.667 169.409 136.264 167.765 135.742 166.156L133.667 159.17C132.681 155.851 131.71 152.536 130.599 149.252C129.683 146.513 128.665 143.746 126.873 141.483C124.712 138.744 121.605 136.967 118.908 134.763C117.953 133.98 117.01 133.088 116.654 131.906C116.535 131.52 116.502 131.113 116.556 130.713C116.61 130.313 116.75 129.93 116.967 129.589C117.538 128.763 118.356 128.884 119.264 128.74C121.479 128.387 123.676 127.943 125.855 127.405C130.177 126.332 134.402 124.9 138.485 123.123C140.805 122.121 143.071 121.006 145.284 119.777Z" fill="#BBBDC8"/>
<path opacity="0.1" d="M146.137 122.673C148.2 121.53 150.204 120.278 152.313 119.221C155.616 117.569 159.319 116.286 161.914 113.769C162.047 113.64 162.211 113.548 162.39 113.501C162.57 113.454 162.758 113.454 162.937 113.501C163.116 113.548 163.28 113.64 163.414 113.768C163.547 113.897 163.645 114.057 163.699 114.235C164.814 117.871 166.136 121.441 167.656 124.928C168.967 127.933 170.427 130.885 171.401 134.012C172.074 136.184 172.509 138.434 173.358 140.544C174.466 143.284 176.243 145.706 177.996 148.09C178.595 149.005 179.344 149.812 180.211 150.477C181.487 151.342 183.382 151.894 183.511 153.429C181.863 154.603 179.62 154.211 177.589 154.211C175.525 154.253 173.475 154.555 171.487 155.112C169.144 155.645 166.859 156.41 164.665 157.393C162.549 158.459 160.517 159.683 158.587 161.057L140.431 173.217C139.096 171.691 139.151 169.448 138.865 167.436C138.622 165.977 138.271 164.538 137.816 163.131L136.004 157.037C135.143 154.141 134.282 151.249 133.327 148.384C132.544 145.992 131.644 143.581 130.078 141.605C128.192 139.221 125.483 137.667 123.127 135.734C122.297 135.057 121.472 134.274 121.17 133.245C121.067 132.908 121.038 132.553 121.085 132.205C121.133 131.856 121.255 131.522 121.444 131.225C121.941 130.501 122.658 130.607 123.448 130.481C125.382 130.176 127.298 129.785 129.198 129.307C132.969 128.374 136.654 127.125 140.215 125.573C142.237 124.702 144.211 123.735 146.137 122.673Z" fill="black"/>
<path d="M138.54 138.607C139.405 138.607 140.106 137.906 140.106 137.041C140.106 136.176 139.405 135.476 138.54 135.476C137.675 135.476 136.975 136.176 136.975 137.041C136.975 137.906 137.675 138.607 138.54 138.607Z" fill="#BBBDC8"/>
<path d="M155.233 130.877C156.098 130.877 156.798 130.176 156.798 129.311C156.798 128.447 156.098 127.746 155.233 127.746C154.368 127.746 153.667 128.447 153.667 129.311C153.667 130.176 154.368 130.877 155.233 130.877Z" fill="#BBBDC8"/>
<path d="M146.434 155.656C147.299 155.656 148 154.955 148 154.09C148 153.225 147.299 152.524 146.434 152.524C145.57 152.524 144.869 153.225 144.869 154.09C144.869 154.955 145.57 155.656 146.434 155.656Z" fill="#BBBDC8"/>
<path d="M163.127 147.926C163.992 147.926 164.693 147.225 164.693 146.36C164.693 145.495 163.992 144.795 163.127 144.795C162.263 144.795 161.562 145.495 161.562 146.36C161.562 147.225 162.263 147.926 163.127 147.926Z" fill="#BBBDC8"/>
<path d="M122.227 163.93C123.793 163.479 125.44 162.986 126.591 161.832C127.483 160.932 127.98 159.722 128.607 158.618C129.855 156.415 131.832 154.462 134.317 153.977C136.802 153.491 139.722 154.928 140.254 157.405C140.599 159.018 139.926 160.658 139.256 162.168C138.254 164.431 137.123 166.802 135.057 168.168C133.249 169.362 130.943 169.624 129.166 170.865C127.601 171.961 126.614 173.695 125.252 175.045C123.472 176.799 121.117 177.848 118.622 178C118.244 178.045 117.86 177.992 117.507 177.847C117.161 177.643 116.871 177.356 116.661 177.014C115.511 175.448 114.344 173.836 113.734 171.984C111.609 165.53 117.624 165.249 122.227 163.93Z" fill="#FBBEBE"/>
<path d="M163.926 164.791C163.397 161.636 163.327 158.196 161.378 155.66C159.746 153.542 157.033 152.47 154.364 152.29C153.581 152.235 152.661 152.313 152.207 152.955C151.949 153.408 151.846 153.933 151.914 154.45C152.079 158.459 153.575 162.298 156.164 165.362C157.139 166.505 158.27 167.546 158.951 168.885C159.546 170.039 159.765 171.358 160.317 172.532C161.037 174.063 162.274 175.272 163.221 176.681C164.564 178.699 165.26 181.079 165.217 183.503C166.25 181.816 166.125 179.706 166.223 177.73C166.352 174.947 168.301 173.425 167.037 171.155C165.773 168.885 164.384 167.55 163.926 164.791Z" fill="#FBBEBE"/>
<path opacity="0.1" d="M178.372 161.648C177.382 164.231 176.873 166.994 175.706 169.503C175.399 170.288 174.872 170.967 174.188 171.46C172.935 172.243 171.28 171.757 170.035 170.978C168.791 170.2 167.687 169.127 166.329 168.611C165.718 174.556 160.779 179.789 154.877 180.744C158.399 183.98 162.11 187.577 162.904 192.29C163.053 193.155 163.104 194.074 163.566 194.822C164.309 196.016 165.879 196.407 167.288 196.387C170.869 196.36 174.153 194.47 177.143 192.474C178.153 191.808 179.174 191.096 179.847 190.094C180.521 189.092 180.81 187.82 181.065 186.607C182.795 178.385 184.523 170.159 186.25 161.93C186.72 159.695 186.642 155.303 183.174 155.746C180.822 156.09 179.1 159.757 178.372 161.648Z" fill="black"/>
<path d="M179.155 161.648C178.164 164.231 177.656 166.994 176.489 169.503C176.182 170.288 175.654 170.967 174.971 171.46C173.718 172.243 172.063 171.757 170.818 170.978C169.573 170.2 168.47 169.127 167.112 168.611C166.501 174.556 161.562 179.789 155.659 180.744C159.182 183.98 162.892 187.577 163.687 192.29C163.836 193.155 163.886 194.074 164.348 194.822C165.092 196.016 166.661 196.407 168.07 196.387C171.652 196.36 174.935 194.47 177.926 192.474C178.935 191.808 179.957 191.096 180.63 190.094C181.303 189.092 181.593 187.82 181.847 186.607C183.577 178.385 185.306 170.159 187.033 161.93C187.503 159.695 187.425 155.303 183.957 155.746C181.605 156.09 179.883 159.757 179.155 161.648Z" fill="#F86D70"/>
<path d="M122.059 176.912C121.918 177.628 121.209 178.063 120.568 178.407C119.327 179.076 117.977 179.769 116.579 179.581C115.182 179.393 114.012 178.36 113.096 177.264C112.64 176.743 112.246 176.17 111.922 175.558C110.509 172.767 110.356 160.892 116.196 164.767C118.607 166.372 117.249 169.112 117.55 171.472C117.682 172.871 118.241 174.197 119.151 175.268C119.327 175.472 121.969 177.374 122.059 176.912Z" fill="#F86D70"/>
<path d="M169.417 106.438C179.036 106.438 186.834 102.759 186.834 98.2192C186.834 93.6799 179.036 90 169.417 90C159.798 90 152 93.6799 152 98.2192C152 102.759 159.798 106.438 169.417 106.438Z" fill="#2F2E41"/>
<path opacity="0.1" d="M172.798 102.153C163.374 102.153 155.706 98.6301 155.397 94.2074C154.897 94.9333 154.625 95.7917 154.615 96.6731C154.615 101.213 162.411 104.892 172.031 104.892C181.652 104.892 189.448 101.213 189.448 96.6731C189.448 96.5792 189.448 96.4892 189.448 96.3992C187.198 99.7338 180.599 102.153 172.798 102.153Z" fill="black"/>
<path d="M248.532 160.47C272.31 160.47 291.585 142.947 291.585 121.331C291.585 99.7149 272.31 82.1918 248.532 82.1918C224.755 82.1918 205.479 99.7149 205.479 121.331C205.479 142.947 224.755 160.47 248.532 160.47Z" fill="#2F2E41"/>
<path opacity="0.1" d="M248.532 150.294C226.728 150.294 208.708 135.554 205.871 116.438C205.612 118.188 205.481 119.954 205.479 121.722C205.479 143.339 224.755 160.861 248.532 160.861C272.309 160.861 291.585 143.339 291.585 121.722C291.584 119.954 291.453 118.188 291.194 116.438C288.356 135.554 270.337 150.294 248.532 150.294Z" fill="black"/>
<path d="M247.749 150.685C259.206 150.685 268.493 138.156 268.493 122.701C268.493 107.245 259.206 94.7163 247.749 94.7163C236.293 94.7163 227.006 107.245 227.006 122.701C227.006 138.156 236.293 150.685 247.749 150.685Z" fill="#2F2E41"/>
<path opacity="0.1" d="M247.749 150.685C259.206 150.685 268.493 138.156 268.493 122.701C268.493 107.245 259.206 94.7163 247.749 94.7163C236.293 94.7163 227.006 107.245 227.006 122.701C227.006 138.156 236.293 150.685 247.749 150.685Z" fill="black"/>
<path d="M238.211 136.885C237.429 138.818 235.863 140.873 233.515 141.021C236.646 143.593 239.816 146.192 243.558 148.067C247.299 149.941 251.73 151.041 255.988 150.368C258.994 149.894 261.726 148.575 264.278 147.131C268.622 144.673 272.888 141.444 273.988 137.068C270.726 137.232 267.457 137.171 264.204 136.885C262.517 136.74 260.791 136.517 259.327 135.781C258.428 135.306 257.634 134.657 256.99 133.87C256.347 133.084 255.868 132.176 255.581 131.202C254.998 129.354 255.01 127.409 255.115 125.495C255.174 124.38 255.217 123.147 254.36 122.294C253.503 121.44 252.086 121.327 250.798 121.299C248.209 121.247 245.619 121.4 243.053 121.757C241.707 121.897 240.374 122.139 239.065 122.481C237.366 122.998 237.526 122.798 237.937 124.219C239.213 128.571 239.992 132.485 238.211 136.885Z" fill="#A0616A"/>
<path opacity="0.1" d="M238.211 136.885C237.429 138.818 235.863 140.873 233.515 141.021C236.646 143.593 239.816 146.192 243.558 148.067C247.299 149.941 251.73 151.041 255.988 150.368C258.994 149.894 261.726 148.575 264.278 147.131C268.622 144.673 272.888 141.444 273.988 137.068C270.726 137.232 267.457 137.171 264.204 136.885C262.517 136.74 260.791 136.517 259.327 135.781C258.428 135.306 257.634 134.657 256.99 133.87C256.347 133.084 255.868 132.176 255.581 131.202C254.998 129.354 255.01 127.409 255.115 125.495C255.174 124.38 255.217 123.147 254.36 122.294C253.503 121.44 252.086 121.327 250.798 121.299C248.209 121.247 245.619 121.4 243.053 121.757C241.707 121.897 240.374 122.139 239.065 122.481C237.366 122.998 237.526 122.798 237.937 124.219C239.213 128.571 239.992 132.485 238.211 136.885Z" fill="black"/>
<path d="M247.162 132.877C257.322 132.877 265.558 124.641 265.558 114.481C265.558 104.322 257.322 96.0861 247.162 96.0861C237.003 96.0861 228.767 104.322 228.767 114.481C228.767 124.641 237.003 132.877 247.162 132.877Z" fill="#A0616A"/>
<path d="M240.822 138.505C239.62 137.065 238.384 135.593 236.783 134.615C234.16 133.006 230.912 132.904 227.84 132.853C224.509 132.795 220.888 132.826 218.254 134.865C217.08 135.785 216.18 137.045 215.323 138.282L204.164 154.329C203.73 154.955 203.272 155.663 203.382 156.419C203.506 156.962 203.777 157.462 204.164 157.863L216.438 173.19C217.139 174.063 217.863 174.982 218.098 176.078C218.333 177.174 218.043 178.325 217.667 179.389C216.184 183.613 213.362 187.609 213.62 192.059C213.804 194.963 215.323 197.632 217.182 199.887C221.448 205.025 227.589 208.368 234.012 210.192C240.434 212.016 247.178 212.415 253.859 212.458C266.454 212.54 279.691 211.166 290.094 204.063L281.918 196.36C280.301 194.834 278.607 193.19 278.047 191.037C277.656 189.589 277.843 188.063 278.02 186.579C278.348 183.867 278.677 181.135 279.554 178.552C281.992 171.354 288.258 166.231 292.438 159.887C292.963 159.104 293.472 158.204 293.413 157.252C293.366 156.45 292.92 155.734 292.485 155.061C290.575 152.098 288.595 149.151 287.209 145.91C286.176 143.499 285.476 140.935 284.196 138.646C282.916 136.356 280.885 134.297 278.325 133.816C275.029 133.198 271.816 135.26 268.47 135.401C266.02 135.507 263.464 134.587 261.174 135.46C258.458 136.497 257.26 139.558 255.738 142.043C254.614 143.894 251.264 148.959 248.638 147.714C247.209 147.033 245.898 144.583 244.873 143.382L240.822 138.505Z" fill="#F98A8D"/>
<path d="M255.476 150.947C254.856 150.598 254.136 150.468 253.433 150.579C253.085 150.646 252.77 150.826 252.535 151.09C252.301 151.355 252.161 151.69 252.137 152.043L251.006 151.977C250.875 151.963 250.743 151.969 250.615 151.996C250.451 152.031 250.308 152.13 250.218 152.271C250.127 152.411 250.096 152.582 250.131 152.746C250.166 152.909 250.265 153.052 250.406 153.143C250.546 153.233 250.717 153.264 250.881 153.229C250.325 153.449 249.831 153.798 249.436 154.247C249.141 154.691 249.033 155.233 249.136 155.757C249.238 156.28 249.543 156.741 249.984 157.041C250.447 157.307 250.991 157.395 251.515 157.289C252.038 157.182 252.504 156.888 252.826 156.462C252.76 156.696 252.779 156.945 252.879 157.167C252.979 157.388 253.154 157.567 253.374 157.671C255.495 158.818 256.575 157.26 256.865 155.456C257.194 153.476 257.616 152.004 255.476 150.947Z" fill="#FFE9B3"/>
<path opacity="0.15" d="M255.476 150.947C254.856 150.598 254.136 150.468 253.433 150.579C253.085 150.646 252.77 150.826 252.535 151.09C252.301 151.355 252.161 151.69 252.137 152.043L251.006 151.977C250.875 151.963 250.743 151.969 250.615 151.996C250.451 152.031 250.308 152.13 250.218 152.271C250.127 152.411 250.096 152.582 250.131 152.746C250.166 152.909 250.265 153.052 250.406 153.143C250.546 153.233 250.717 153.264 250.881 153.229C250.325 153.449 249.831 153.798 249.436 154.247C249.141 154.691 249.033 155.233 249.136 155.757C249.238 156.28 249.543 156.741 249.984 157.041C250.447 157.307 250.991 157.395 251.515 157.289C252.038 157.182 252.504 156.888 252.826 156.462C252.76 156.696 252.779 156.945 252.879 157.167C252.979 157.388 253.154 157.567 253.374 157.671C255.495 158.818 256.575 157.26 256.865 155.456C257.194 153.476 257.616 152.004 255.476 150.947Z" fill="black"/>
<path d="M261.252 149.616C260.633 149.266 259.912 149.138 259.209 149.252C258.863 149.318 258.547 149.497 258.313 149.761C258.08 150.025 257.94 150.36 257.918 150.712L256.787 150.646C256.656 150.632 256.524 150.639 256.395 150.665C256.242 150.713 256.113 150.816 256.031 150.954C255.949 151.092 255.922 151.256 255.953 151.413C255.995 151.568 256.093 151.702 256.228 151.788C256.364 151.874 256.527 151.907 256.685 151.879C256.13 152.1 255.636 152.448 255.241 152.896C254.946 153.341 254.839 153.883 254.941 154.406C255.044 154.929 255.348 155.391 255.789 155.691C256.252 155.958 256.796 156.046 257.32 155.94C257.844 155.835 258.311 155.541 258.634 155.115C258.568 155.348 258.586 155.597 258.686 155.818C258.785 156.038 258.96 156.217 259.178 156.321C261.303 157.472 262.38 155.93 262.673 154.11C262.975 152.145 263.405 150.673 261.252 149.616Z" fill="#FFE9B3"/>
<path d="M265.965 150.29C265.346 149.94 264.627 149.812 263.926 149.926C263.578 149.99 263.262 150.169 263.027 150.433C262.793 150.698 262.653 151.033 262.63 151.386L261.499 151.319C261.368 151.305 261.236 151.312 261.108 151.339C260.955 151.387 260.825 151.49 260.743 151.628C260.662 151.766 260.634 151.929 260.665 152.086C260.707 152.241 260.805 152.375 260.941 152.461C261.076 152.548 261.239 152.58 261.397 152.552C260.842 152.771 260.346 153.12 259.953 153.569C259.658 154.013 259.55 154.556 259.652 155.079C259.755 155.603 260.06 156.064 260.501 156.364C260.963 156.631 261.507 156.72 262.031 156.614C262.554 156.509 263.021 156.215 263.342 155.789C263.277 156.022 263.295 156.271 263.396 156.492C263.496 156.712 263.671 156.89 263.89 156.994C266.012 158.145 267.088 156.583 267.382 154.783C267.687 152.838 268.102 151.346 265.965 150.29Z" fill="#FFE9B3"/>
<path opacity="0.15" d="M265.965 150.29C265.346 149.94 264.627 149.812 263.926 149.926C263.578 149.99 263.262 150.169 263.027 150.433C262.793 150.698 262.653 151.033 262.63 151.386L261.499 151.319C261.368 151.305 261.236 151.312 261.108 151.339C260.955 151.387 260.825 151.49 260.743 151.628C260.662 151.766 260.634 151.929 260.665 152.086C260.707 152.241 260.805 152.375 260.941 152.461C261.076 152.548 261.239 152.58 261.397 152.552C260.842 152.771 260.346 153.12 259.953 153.569C259.658 154.013 259.55 154.556 259.652 155.079C259.755 155.603 260.06 156.064 260.501 156.364C260.963 156.631 261.507 156.72 262.031 156.614C262.554 156.509 263.021 156.215 263.342 155.789C263.277 156.022 263.295 156.271 263.396 156.492C263.496 156.712 263.671 156.89 263.89 156.994C266.012 158.145 267.088 156.583 267.382 154.783C267.687 152.838 268.102 151.346 265.965 150.29Z" fill="black"/>
<path d="M277.495 153.033V195.076C277.494 195.344 277.387 195.6 277.198 195.789C277.009 195.978 276.753 196.085 276.485 196.086H243.671C243.404 196.085 243.147 195.978 242.958 195.789C242.769 195.6 242.662 195.344 242.661 195.076V153.033C242.661 152.866 242.703 152.7 242.782 152.553C242.862 152.405 242.977 152.279 243.117 152.187C243.257 152.095 243.418 152.04 243.585 152.025C243.752 152.011 243.921 152.039 244.074 152.106C244.909 152.466 245.743 152.798 246.575 153.104C247.75 153.534 248.924 153.909 250.098 154.227C251.272 154.544 252.446 154.806 253.62 155.01C254.795 155.213 255.969 155.37 257.143 155.464C258.317 155.558 259.491 155.597 260.665 155.573C261.84 155.55 263.014 155.483 264.188 155.354C265.362 155.225 266.536 155.033 267.71 154.787C268.885 154.54 270.059 154.251 271.233 153.894C272.145 153.616 273.061 153.307 273.973 152.963C274.677 152.701 275.378 152.415 276.082 152.11C276.236 152.043 276.403 152.015 276.57 152.029C276.737 152.043 276.898 152.099 277.038 152.19C277.178 152.282 277.293 152.407 277.373 152.554C277.453 152.701 277.495 152.866 277.495 153.033V153.033Z" fill="#BBBDC8"/>
<path d="M250.098 154.227V196.106H246.575V153.104C247.749 153.534 248.924 153.909 250.098 154.227Z" fill="white"/>
<path d="M257.143 155.46V196.086H253.62V154.99C254.795 155.217 255.969 155.366 257.143 155.46Z" fill="white"/>
<path d="M264.188 155.35V196.086H260.665V155.577C261.84 155.556 263.014 155.481 264.188 155.35Z" fill="white"/>
<path d="M271.233 153.89V196.086H267.71V154.794C268.885 154.549 270.059 154.248 271.233 153.89Z" fill="white"/>
<path opacity="0.1" d="M277.495 153.033V195.076C277.494 195.344 277.387 195.6 277.198 195.789C277.009 195.978 276.753 196.085 276.485 196.086H273.973V152.959C274.677 152.697 275.378 152.411 276.082 152.106C276.236 152.039 276.404 152.011 276.571 152.025C276.738 152.04 276.899 152.095 277.039 152.187C277.18 152.279 277.295 152.405 277.374 152.553C277.454 152.7 277.495 152.866 277.495 153.033Z" fill="black"/>
<path d="M251.824 148.943C251.205 148.594 250.486 148.466 249.785 148.579C249.437 148.644 249.121 148.822 248.886 149.087C248.652 149.351 248.512 149.686 248.489 150.039L247.358 149.973C247.227 149.959 247.095 149.965 246.967 149.992C246.814 150.04 246.684 150.143 246.602 150.281C246.521 150.419 246.493 150.582 246.524 150.74C246.566 150.895 246.664 151.029 246.8 151.115C246.935 151.201 247.098 151.233 247.256 151.205C246.701 151.425 246.205 151.773 245.812 152.223C245.517 152.667 245.409 153.21 245.511 153.733C245.614 154.256 245.919 154.718 246.36 155.018C246.823 155.284 247.366 155.373 247.89 155.267C248.413 155.161 248.879 154.868 249.202 154.442C249.136 154.676 249.155 154.925 249.255 155.145C249.355 155.366 249.53 155.544 249.75 155.648C251.871 156.795 252.947 155.237 253.241 153.436C253.546 151.472 253.969 150 251.824 148.943Z" fill="#FFE9B3"/>
<path d="M257.695 142.29C257.076 141.94 256.357 141.812 255.656 141.926C255.308 141.99 254.992 142.169 254.757 142.433C254.523 142.698 254.383 143.033 254.36 143.386L253.229 143.319C253.098 143.305 252.966 143.312 252.838 143.339C252.685 143.387 252.555 143.49 252.473 143.628C252.392 143.766 252.364 143.929 252.395 144.086C252.437 144.241 252.535 144.375 252.671 144.461C252.806 144.548 252.969 144.58 253.127 144.552C252.571 144.771 252.076 145.12 251.683 145.569C251.388 146.013 251.28 146.556 251.382 147.079C251.485 147.603 251.79 148.064 252.231 148.364C252.693 148.631 253.237 148.719 253.76 148.613C254.284 148.507 254.75 148.214 255.072 147.789C255.007 148.022 255.025 148.271 255.126 148.492C255.226 148.712 255.401 148.89 255.62 148.994C257.742 150.141 258.818 148.583 259.112 146.783C259.417 144.818 259.84 143.346 257.695 142.29Z" fill="#FFE9B3"/>
<path d="M261.683 151.327C262.147 150.787 262.414 150.105 262.438 149.393C262.445 149.039 262.334 148.692 262.121 148.408C261.908 148.125 261.607 147.92 261.264 147.828L261.55 146.732C261.591 146.606 261.611 146.473 261.609 146.34C261.602 146.175 261.531 146.02 261.41 145.907C261.289 145.795 261.128 145.735 260.963 145.742C260.798 145.748 260.642 145.819 260.53 145.941C260.417 146.062 260.358 146.222 260.364 146.387C260.257 145.801 260.012 145.248 259.648 144.775C259.268 144.4 258.756 144.19 258.223 144.19C257.69 144.19 257.178 144.4 256.798 144.775C256.445 145.175 256.25 145.691 256.25 146.225C256.25 146.759 256.445 147.275 256.798 147.675C256.582 147.565 256.333 147.536 256.097 147.592C255.861 147.648 255.652 147.785 255.507 147.98C253.969 149.836 255.288 151.198 256.998 151.836C258.869 152.524 260.231 153.229 261.683 151.327Z" fill="#FFE9B3"/>
<path d="M266.771 151.327C267.235 150.787 267.502 150.105 267.526 149.393C267.533 149.039 267.422 148.692 267.209 148.408C266.996 148.125 266.695 147.92 266.352 147.828L266.638 146.732C266.68 146.606 266.699 146.473 266.697 146.34C266.69 146.175 266.619 146.02 266.498 145.907C266.377 145.795 266.216 145.735 266.051 145.742C265.886 145.748 265.73 145.819 265.618 145.941C265.505 146.062 265.446 146.222 265.452 146.387C265.345 145.801 265.1 145.248 264.736 144.775C264.356 144.4 263.845 144.19 263.311 144.19C262.778 144.19 262.266 144.4 261.887 144.775C261.533 145.175 261.338 145.691 261.338 146.225C261.338 146.759 261.533 147.275 261.887 147.675C261.67 147.565 261.421 147.536 261.185 147.592C260.949 147.648 260.74 147.785 260.595 147.98C259.057 149.836 260.376 151.198 262.086 151.836C263.957 152.524 265.319 153.229 266.771 151.327Z" fill="#FFE9B3"/>
<path d="M269.957 154.673C270.316 154.058 270.454 153.339 270.348 152.634C270.287 152.286 270.111 151.968 269.849 151.73C269.587 151.493 269.253 151.35 268.9 151.323L268.982 150.196C269.002 150.066 269.002 149.934 268.982 149.804C268.946 149.643 268.846 149.504 268.706 149.416C268.567 149.328 268.398 149.3 268.237 149.337C268.076 149.373 267.936 149.473 267.849 149.613C267.761 149.752 267.732 149.921 267.769 150.082C267.554 149.525 267.211 149.026 266.767 148.626C266.326 148.326 265.784 148.212 265.26 148.309C264.735 148.406 264.27 148.705 263.965 149.143C263.693 149.603 263.599 150.146 263.7 150.671C263.801 151.196 264.09 151.666 264.513 151.992C264.28 151.924 264.03 151.941 263.808 152.039C263.586 152.137 263.406 152.31 263.299 152.528C262.125 154.638 263.691 155.734 265.476 156.051C267.413 156.36 268.885 156.802 269.957 154.673Z" fill="#FFE9B3"/>
<path d="M254.301 148.411C254.66 147.796 254.798 147.076 254.693 146.372C254.631 146.023 254.455 145.706 254.193 145.468C253.931 145.231 253.597 145.087 253.245 145.061L253.327 143.933C253.347 143.804 253.347 143.672 253.327 143.542C253.29 143.381 253.191 143.241 253.051 143.154C252.911 143.066 252.742 143.037 252.581 143.074C252.42 143.111 252.281 143.21 252.193 143.35C252.105 143.49 252.077 143.659 252.114 143.82C251.898 143.263 251.555 142.764 251.112 142.364C250.67 142.064 250.129 141.95 249.604 142.047C249.08 142.144 248.614 142.443 248.309 142.881C248.038 143.341 247.943 143.884 248.044 144.409C248.145 144.934 248.434 145.403 248.857 145.73C248.624 145.662 248.375 145.678 248.153 145.777C247.931 145.875 247.75 146.048 247.644 146.266C246.47 148.376 248.035 149.472 249.82 149.789C251.757 150.098 253.229 150.54 254.301 148.411Z" fill="#FFE9B3"/>
<path d="M255.867 146.251C255.247 145.901 254.527 145.771 253.824 145.883C253.477 145.949 253.161 146.129 252.927 146.394C252.692 146.659 252.552 146.994 252.528 147.346L251.397 147.28C251.267 147.266 251.135 147.273 251.006 147.299C250.842 147.335 250.7 147.434 250.609 147.574C250.518 147.715 250.487 147.885 250.523 148.049C250.558 148.212 250.657 148.355 250.797 148.446C250.938 148.537 251.109 148.568 251.272 148.532C250.717 148.752 250.222 149.101 249.828 149.55C249.532 149.994 249.424 150.537 249.527 151.06C249.63 151.583 249.935 152.045 250.376 152.344C250.839 152.611 251.383 152.699 251.906 152.592C252.429 152.485 252.895 152.191 253.217 151.765C253.151 151.999 253.17 152.249 253.27 152.47C253.37 152.691 253.546 152.87 253.765 152.975C255.886 154.121 256.967 152.564 257.256 150.759C257.585 148.779 258.008 147.307 255.867 146.251Z" fill="#FFE9B3"/>
<path opacity="0.15" d="M255.867 146.251C255.247 145.901 254.527 145.771 253.824 145.883C253.477 145.949 253.161 146.129 252.927 146.394C252.692 146.659 252.552 146.994 252.528 147.346L251.397 147.28C251.267 147.266 251.135 147.273 251.006 147.299C250.842 147.335 250.7 147.434 250.609 147.574C250.518 147.715 250.487 147.885 250.523 148.049C250.558 148.212 250.657 148.355 250.797 148.446C250.938 148.537 251.109 148.568 251.272 148.532C250.717 148.752 250.222 149.101 249.828 149.55C249.532 149.994 249.424 150.537 249.527 151.06C249.63 151.583 249.935 152.045 250.376 152.344C250.839 152.611 251.383 152.699 251.906 152.592C252.429 152.485 252.895 152.191 253.217 151.765C253.151 151.999 253.17 152.249 253.27 152.47C253.37 152.691 253.546 152.87 253.765 152.975C255.886 154.121 256.967 152.564 257.256 150.759C257.585 148.779 258.008 147.307 255.867 146.251Z" fill="black"/>
<path d="M272.701 147.597C272.081 147.247 271.36 147.118 270.658 147.233C270.31 147.298 269.995 147.477 269.76 147.741C269.525 148.005 269.385 148.34 269.362 148.693L268.235 148.626C268.104 148.613 267.972 148.619 267.843 148.646C267.69 148.694 267.561 148.797 267.479 148.935C267.397 149.073 267.37 149.236 267.401 149.393C267.443 149.548 267.541 149.682 267.677 149.769C267.812 149.855 267.975 149.887 268.133 149.859C267.578 150.08 267.084 150.429 266.689 150.877C266.395 151.321 266.287 151.863 266.39 152.386C266.492 152.909 266.796 153.371 267.237 153.671C267.699 153.938 268.243 154.026 268.766 153.92C269.289 153.815 269.756 153.521 270.078 153.096C270.012 153.329 270.031 153.578 270.132 153.799C270.232 154.02 270.407 154.198 270.626 154.301C272.748 155.448 273.828 153.89 274.117 152.086C274.419 150.125 274.841 148.654 272.701 147.597Z" fill="#FFE9B3"/>
<path opacity="0.15" d="M272.701 147.597C272.081 147.247 271.36 147.118 270.658 147.233C270.31 147.298 269.995 147.477 269.76 147.741C269.525 148.005 269.385 148.34 269.362 148.693L268.235 148.626C268.104 148.613 267.972 148.619 267.843 148.646C267.69 148.694 267.561 148.797 267.479 148.935C267.397 149.073 267.37 149.236 267.401 149.393C267.443 149.548 267.541 149.682 267.677 149.769C267.812 149.855 267.975 149.887 268.133 149.859C267.578 150.08 267.084 150.429 266.689 150.877C266.395 151.321 266.287 151.863 266.39 152.386C266.492 152.909 266.796 153.371 267.237 153.671C267.699 153.938 268.243 154.026 268.766 153.92C269.289 153.815 269.756 153.521 270.078 153.096C270.012 153.329 270.031 153.578 270.132 153.799C270.232 154.02 270.407 154.198 270.626 154.301C272.748 155.448 273.828 153.89 274.117 152.086C274.419 150.125 274.841 148.654 272.701 147.597Z" fill="black"/>
<path d="M262.524 140.943C261.905 140.593 261.184 140.465 260.481 140.579C260.134 140.644 259.818 140.823 259.584 141.088C259.349 141.352 259.209 141.687 259.186 142.039L258.059 141.973C257.928 141.959 257.796 141.966 257.667 141.992C257.514 142.04 257.385 142.143 257.303 142.281C257.221 142.419 257.194 142.583 257.225 142.74C257.267 142.895 257.365 143.029 257.5 143.115C257.636 143.201 257.799 143.233 257.957 143.205C257.402 143.427 256.908 143.775 256.513 144.223C256.218 144.667 256.111 145.21 256.213 145.733C256.316 146.256 256.62 146.717 257.061 147.018C257.523 147.284 258.067 147.373 258.59 147.267C259.113 147.161 259.58 146.868 259.902 146.442C259.836 146.676 259.855 146.925 259.955 147.145C260.056 147.366 260.231 147.544 260.45 147.648C262.571 148.795 263.652 147.237 263.941 145.432C264.243 143.472 264.665 142 262.524 140.943Z" fill="#FFE9B3"/>
<path opacity="0.15" d="M262.524 140.943C261.905 140.593 261.184 140.465 260.481 140.579C260.134 140.644 259.818 140.823 259.584 141.088C259.349 141.352 259.209 141.687 259.186 142.039L258.059 141.973C257.928 141.959 257.796 141.966 257.667 141.992C257.514 142.04 257.385 142.143 257.303 142.281C257.221 142.419 257.194 142.583 257.225 142.74C257.267 142.895 257.365 143.029 257.5 143.115C257.636 143.201 257.799 143.233 257.957 143.205C257.402 143.427 256.908 143.775 256.513 144.223C256.218 144.667 256.111 145.21 256.213 145.733C256.316 146.256 256.62 146.717 257.061 147.018C257.523 147.284 258.067 147.373 258.59 147.267C259.113 147.161 259.58 146.868 259.902 146.442C259.836 146.676 259.855 146.925 259.955 147.145C260.056 147.366 260.231 147.544 260.45 147.648C262.571 148.795 263.652 147.237 263.941 145.432C264.243 143.472 264.665 142 262.524 140.943Z" fill="black"/>
<path d="M254.697 138.595C254.077 138.245 253.356 138.116 252.654 138.231C252.306 138.296 251.991 138.475 251.756 138.739C251.522 139.003 251.382 139.338 251.358 139.691L250.231 139.624C250.1 139.611 249.968 139.617 249.84 139.644C249.687 139.692 249.557 139.795 249.475 139.933C249.393 140.071 249.366 140.234 249.397 140.391C249.439 140.547 249.537 140.68 249.673 140.767C249.808 140.853 249.971 140.885 250.129 140.857C249.575 141.078 249.08 141.427 248.685 141.875C248.391 142.319 248.283 142.861 248.386 143.384C248.488 143.907 248.793 144.369 249.233 144.669C249.695 144.936 250.239 145.024 250.762 144.919C251.285 144.813 251.752 144.519 252.074 144.094C252.008 144.327 252.027 144.576 252.128 144.797C252.228 145.018 252.403 145.196 252.622 145.299C254.744 146.446 255.824 144.888 256.114 143.084C256.415 141.123 256.838 139.652 254.697 138.595Z" fill="#FFE9B3"/>
<path opacity="0.15" d="M254.697 138.595C254.077 138.245 253.356 138.116 252.654 138.231C252.306 138.296 251.991 138.475 251.756 138.739C251.522 139.003 251.382 139.338 251.358 139.691L250.231 139.624C250.1 139.611 249.968 139.617 249.84 139.644C249.687 139.692 249.557 139.795 249.475 139.933C249.393 140.071 249.366 140.234 249.397 140.391C249.439 140.547 249.537 140.68 249.673 140.767C249.808 140.853 249.971 140.885 250.129 140.857C249.575 141.078 249.08 141.427 248.685 141.875C248.391 142.319 248.283 142.861 248.386 143.384C248.488 143.907 248.793 144.369 249.233 144.669C249.695 144.936 250.239 145.024 250.762 144.919C251.285 144.813 251.752 144.519 252.074 144.094C252.008 144.327 252.027 144.576 252.128 144.797C252.228 145.018 252.403 145.196 252.622 145.299C254.744 146.446 255.824 144.888 256.114 143.084C256.415 141.123 256.838 139.652 254.697 138.595Z" fill="black"/>
<path d="M263.307 137.029C262.687 136.679 261.967 136.551 261.264 136.665C260.917 136.731 260.601 136.909 260.367 137.174C260.132 137.438 259.992 137.773 259.969 138.125L258.842 138.059C258.711 138.045 258.579 138.052 258.45 138.078C258.297 138.126 258.167 138.229 258.086 138.367C258.004 138.505 257.976 138.669 258.008 138.826C258.049 138.981 258.148 139.115 258.283 139.201C258.419 139.287 258.582 139.32 258.74 139.292C258.185 139.513 257.69 139.861 257.296 140.309C257.001 140.754 256.894 141.296 256.996 141.819C257.099 142.342 257.403 142.803 257.843 143.104C258.306 143.37 258.85 143.459 259.373 143.353C259.896 143.247 260.363 142.954 260.685 142.528C260.619 142.762 260.638 143.011 260.738 143.231C260.839 143.452 261.014 143.63 261.233 143.734C263.354 144.881 264.434 143.323 264.724 141.519C265.025 139.558 265.448 138.086 263.307 137.029Z" fill="#FFE9B3"/>
<path opacity="0.15" d="M263.307 137.029C262.687 136.679 261.967 136.551 261.264 136.665C260.917 136.731 260.601 136.909 260.367 137.174C260.132 137.438 259.992 137.773 259.969 138.125L258.842 138.059C258.711 138.045 258.579 138.052 258.45 138.078C258.297 138.126 258.167 138.229 258.086 138.367C258.004 138.505 257.976 138.669 258.008 138.826C258.049 138.981 258.148 139.115 258.283 139.201C258.419 139.287 258.582 139.32 258.74 139.292C258.185 139.513 257.69 139.861 257.296 140.309C257.001 140.754 256.894 141.296 256.996 141.819C257.099 142.342 257.403 142.803 257.843 143.104C258.306 143.37 258.85 143.459 259.373 143.353C259.896 143.247 260.363 142.954 260.685 142.528C260.619 142.762 260.638 143.011 260.738 143.231C260.839 143.452 261.014 143.63 261.233 143.734C263.354 144.881 264.434 143.323 264.724 141.519C265.025 139.558 265.448 138.086 263.307 137.029Z" fill="black"/>
<path d="M266.438 139.378C265.819 139.028 265.098 138.899 264.395 139.014C264.048 139.079 263.732 139.258 263.498 139.522C263.263 139.786 263.123 140.121 263.1 140.474L261.973 140.407C261.842 140.393 261.71 140.4 261.581 140.427C261.428 140.475 261.298 140.578 261.217 140.716C261.135 140.854 261.107 141.017 261.139 141.174C261.181 141.329 261.279 141.463 261.414 141.549C261.55 141.636 261.713 141.668 261.871 141.64C261.316 141.861 260.821 142.21 260.427 142.658C260.132 143.102 260.025 143.644 260.127 144.167C260.23 144.69 260.534 145.152 260.975 145.452C261.437 145.719 261.981 145.807 262.504 145.701C263.027 145.595 263.494 145.302 263.816 144.877C263.75 145.11 263.769 145.359 263.869 145.58C263.97 145.8 264.145 145.978 264.364 146.082C266.485 147.229 267.566 145.671 267.855 143.867C268.157 141.906 268.579 140.434 266.438 139.378Z" fill="#FFE9B3"/>
<path opacity="0.15" d="M266.438 139.378C265.819 139.028 265.098 138.899 264.395 139.014C264.048 139.079 263.732 139.258 263.498 139.522C263.263 139.786 263.123 140.121 263.1 140.474L261.973 140.407C261.842 140.393 261.71 140.4 261.581 140.427C261.428 140.475 261.298 140.578 261.217 140.716C261.135 140.854 261.107 141.017 261.139 141.174C261.181 141.329 261.279 141.463 261.414 141.549C261.55 141.636 261.713 141.668 261.871 141.64C261.316 141.861 260.821 142.21 260.427 142.658C260.132 143.102 260.025 143.644 260.127 144.167C260.23 144.69 260.534 145.152 260.975 145.452C261.437 145.719 261.981 145.807 262.504 145.701C263.027 145.595 263.494 145.302 263.816 144.877C263.75 145.11 263.769 145.359 263.869 145.58C263.97 145.8 264.145 145.978 264.364 146.082C266.485 147.229 267.566 145.671 267.855 143.867C268.157 141.906 268.579 140.434 266.438 139.378Z" fill="black"/>
<path d="M247.26 147.597C246.64 147.247 245.92 147.118 245.217 147.233C244.87 147.298 244.554 147.477 244.32 147.741C244.085 148.005 243.945 148.34 243.922 148.693L242.795 148.626C242.664 148.613 242.532 148.619 242.403 148.646C242.25 148.694 242.12 148.797 242.039 148.935C241.957 149.073 241.929 149.236 241.961 149.393C242.002 149.548 242.101 149.682 242.236 149.769C242.372 149.855 242.535 149.887 242.693 149.859C242.138 150.08 241.643 150.429 241.249 150.877C240.954 151.321 240.847 151.863 240.949 152.386C241.052 152.909 241.356 153.371 241.796 153.671C242.259 153.938 242.803 154.026 243.326 153.92C243.849 153.815 244.316 153.521 244.638 153.096C244.572 153.329 244.591 153.578 244.691 153.799C244.792 154.02 244.967 154.198 245.186 154.301C247.307 155.448 248.387 153.89 248.677 152.086C248.978 150.125 249.401 148.654 247.26 147.597Z" fill="#FFE9B3"/>
<path opacity="0.15" d="M247.26 147.597C246.64 147.247 245.92 147.118 245.217 147.233C244.87 147.298 244.554 147.477 244.32 147.741C244.085 148.005 243.945 148.34 243.922 148.693L242.795 148.626C242.664 148.613 242.532 148.619 242.403 148.646C242.25 148.694 242.12 148.797 242.039 148.935C241.957 149.073 241.929 149.236 241.961 149.393C242.002 149.548 242.101 149.682 242.236 149.769C242.372 149.855 242.535 149.887 242.693 149.859C242.138 150.08 241.643 150.429 241.249 150.877C240.954 151.321 240.847 151.863 240.949 152.386C241.052 152.909 241.356 153.371 241.796 153.671C242.259 153.938 242.803 154.026 243.326 153.92C243.849 153.815 244.316 153.521 244.638 153.096C244.572 153.329 244.591 153.578 244.691 153.799C244.792 154.02 244.967 154.198 245.186 154.301C247.307 155.448 248.387 153.89 248.677 152.086C248.978 150.125 249.401 148.654 247.26 147.597Z" fill="black"/>
<path d="M269.961 142.117C269.341 141.767 268.62 141.639 267.918 141.753C267.571 141.819 267.255 141.997 267.02 142.262C266.786 142.526 266.646 142.861 266.622 143.213L265.495 143.147C265.364 143.133 265.232 143.14 265.104 143.166C264.951 143.214 264.821 143.317 264.739 143.455C264.658 143.593 264.63 143.757 264.661 143.914C264.703 144.069 264.801 144.203 264.937 144.289C265.072 144.375 265.235 144.408 265.393 144.38C264.839 144.601 264.344 144.949 263.949 145.397C263.655 145.842 263.547 146.384 263.65 146.907C263.752 147.43 264.057 147.892 264.497 148.192C264.96 148.458 265.503 148.547 266.027 148.441C266.55 148.335 267.016 148.042 267.339 147.616C267.273 147.85 267.292 148.099 267.392 148.319C267.492 148.54 267.667 148.718 267.887 148.822C270.008 149.969 271.088 148.411 271.378 146.607C271.679 144.646 272.102 143.174 269.961 142.117Z" fill="#FFE9B3"/>
<path opacity="0.15" d="M269.961 142.117C269.341 141.767 268.62 141.639 267.918 141.753C267.571 141.819 267.255 141.997 267.02 142.262C266.786 142.526 266.646 142.861 266.622 143.213L265.495 143.147C265.364 143.133 265.232 143.14 265.104 143.166C264.951 143.214 264.821 143.317 264.739 143.455C264.658 143.593 264.63 143.757 264.661 143.914C264.703 144.069 264.801 144.203 264.937 144.289C265.072 144.375 265.235 144.408 265.393 144.38C264.839 144.601 264.344 144.949 263.949 145.397C263.655 145.842 263.547 146.384 263.65 146.907C263.752 147.43 264.057 147.892 264.497 148.192C264.96 148.458 265.503 148.547 266.027 148.441C266.55 148.335 267.016 148.042 267.339 147.616C267.273 147.85 267.292 148.099 267.392 148.319C267.492 148.54 267.667 148.718 267.887 148.822C270.008 149.969 271.088 148.411 271.378 146.607C271.679 144.646 272.102 143.174 269.961 142.117Z" fill="black"/>
<path d="M277.397 146.031C276.777 145.681 276.057 145.553 275.354 145.667C275.007 145.733 274.691 145.911 274.457 146.176C274.222 146.44 274.082 146.775 274.059 147.127L272.932 147.061C272.801 147.047 272.669 147.054 272.54 147.08C272.387 147.128 272.257 147.231 272.176 147.369C272.094 147.507 272.066 147.671 272.098 147.828C272.139 147.983 272.238 148.117 272.373 148.203C272.509 148.289 272.672 148.322 272.83 148.294C272.275 148.515 271.78 148.863 271.386 149.311C271.091 149.755 270.984 150.298 271.086 150.821C271.189 151.344 271.493 151.805 271.933 152.106C272.396 152.372 272.94 152.461 273.463 152.355C273.986 152.249 274.453 151.956 274.775 151.53C274.709 151.764 274.728 152.013 274.828 152.233C274.929 152.454 275.104 152.632 275.323 152.736C277.444 153.883 278.524 152.325 278.814 150.521C279.115 148.56 279.538 147.088 277.397 146.031Z" fill="#FFE9B3"/>
<path opacity="0.15" d="M277.397 146.031C276.777 145.681 276.057 145.553 275.354 145.667C275.007 145.733 274.691 145.911 274.457 146.176C274.222 146.44 274.082 146.775 274.059 147.127L272.932 147.061C272.801 147.047 272.669 147.054 272.54 147.08C272.387 147.128 272.257 147.231 272.176 147.369C272.094 147.507 272.066 147.671 272.098 147.828C272.139 147.983 272.238 148.117 272.373 148.203C272.509 148.289 272.672 148.322 272.83 148.294C272.275 148.515 271.78 148.863 271.386 149.311C271.091 149.755 270.984 150.298 271.086 150.821C271.189 151.344 271.493 151.805 271.933 152.106C272.396 152.372 272.94 152.461 273.463 152.355C273.986 152.249 274.453 151.956 274.775 151.53C274.709 151.764 274.728 152.013 274.828 152.233C274.929 152.454 275.104 152.632 275.323 152.736C277.444 153.883 278.524 152.325 278.814 150.521C279.115 148.56 279.538 147.088 277.397 146.031Z" fill="black"/>
<path d="M271.135 137.421C270.515 137.071 269.795 136.942 269.092 137.057C268.745 137.122 268.429 137.301 268.194 137.565C267.96 137.829 267.82 138.164 267.796 138.517L266.669 138.45C266.539 138.437 266.407 138.443 266.278 138.47C266.125 138.518 265.995 138.621 265.913 138.759C265.832 138.897 265.804 139.06 265.836 139.217C265.877 139.372 265.975 139.506 266.111 139.592C266.246 139.679 266.409 139.711 266.568 139.683C266.013 139.904 265.518 140.253 265.123 140.701C264.829 141.145 264.721 141.687 264.824 142.21C264.927 142.733 265.231 143.195 265.671 143.495C266.134 143.762 266.678 143.85 267.201 143.744C267.724 143.638 268.19 143.345 268.513 142.92C268.447 143.153 268.466 143.402 268.566 143.623C268.666 143.843 268.842 144.021 269.061 144.125C271.182 145.272 272.262 143.714 272.552 141.91C272.853 139.949 273.276 138.477 271.135 137.421Z" fill="#FFE9B3"/>
<path opacity="0.15" d="M271.135 137.421C270.515 137.071 269.795 136.942 269.092 137.057C268.745 137.122 268.429 137.301 268.194 137.565C267.96 137.829 267.82 138.164 267.796 138.517L266.669 138.45C266.539 138.437 266.407 138.443 266.278 138.47C266.125 138.518 265.995 138.621 265.913 138.759C265.832 138.897 265.804 139.06 265.836 139.217C265.877 139.372 265.975 139.506 266.111 139.592C266.246 139.679 266.409 139.711 266.568 139.683C266.013 139.904 265.518 140.253 265.123 140.701C264.829 141.145 264.721 141.687 264.824 142.21C264.927 142.733 265.231 143.195 265.671 143.495C266.134 143.762 266.678 143.85 267.201 143.744C267.724 143.638 268.19 143.345 268.513 142.92C268.447 143.153 268.466 143.402 268.566 143.623C268.666 143.843 268.842 144.021 269.061 144.125C271.182 145.272 272.262 143.714 272.552 141.91C272.853 139.949 273.276 138.477 271.135 137.421Z" fill="black"/>
<path d="M276.611 146.845C276.969 146.23 277.107 145.511 277.002 144.806C276.94 144.458 276.765 144.14 276.502 143.903C276.24 143.665 275.907 143.522 275.554 143.495L275.636 142.368C275.656 142.238 275.656 142.106 275.636 141.976C275.618 141.897 275.584 141.822 275.537 141.755C275.489 141.688 275.429 141.632 275.36 141.588C275.291 141.545 275.214 141.515 275.133 141.502C275.053 141.488 274.97 141.491 274.89 141.509C274.811 141.527 274.735 141.561 274.669 141.608C274.602 141.655 274.546 141.715 274.502 141.785C274.459 141.854 274.429 141.931 274.416 142.012C274.402 142.092 274.404 142.175 274.423 142.254C274.208 141.697 273.864 141.198 273.421 140.798C272.98 140.499 272.438 140.385 271.913 140.481C271.389 140.578 270.924 140.878 270.618 141.315C270.347 141.775 270.252 142.319 270.353 142.843C270.454 143.368 270.743 143.838 271.166 144.164C270.933 144.096 270.684 144.113 270.462 144.211C270.24 144.309 270.06 144.482 269.953 144.701C268.779 146.81 270.344 147.906 272.129 148.223C274.067 148.532 275.538 148.975 276.611 146.845Z" fill="#FFE9B3"/>
<path d="M276.611 140.583C276.969 139.968 277.107 139.248 277.002 138.544C276.94 138.196 276.765 137.878 276.502 137.64C276.24 137.403 275.907 137.26 275.554 137.233L275.636 136.106C275.656 135.976 275.656 135.844 275.636 135.714C275.599 135.553 275.5 135.414 275.36 135.326C275.22 135.238 275.051 135.21 274.89 135.247C274.73 135.283 274.59 135.383 274.502 135.523C274.414 135.662 274.386 135.831 274.423 135.992C274.208 135.435 273.864 134.936 273.421 134.536C272.98 134.236 272.438 134.122 271.913 134.219C271.389 134.316 270.924 134.615 270.618 135.053C270.347 135.513 270.252 136.056 270.353 136.581C270.454 137.106 270.743 137.576 271.166 137.902C270.933 137.834 270.684 137.851 270.462 137.949C270.24 138.047 270.06 138.22 269.953 138.438C268.779 140.548 270.344 141.644 272.129 141.961C274.067 142.27 275.538 142.712 276.611 140.583Z" fill="#FFE9B3"/>
<path d="M269.957 148.802C270.316 148.187 270.454 147.468 270.348 146.763C270.287 146.415 270.111 146.097 269.849 145.86C269.587 145.622 269.253 145.479 268.9 145.452L268.982 144.325C269.002 144.195 269.002 144.063 268.982 143.933C268.946 143.773 268.846 143.633 268.706 143.545C268.567 143.457 268.398 143.429 268.237 143.466C268.076 143.503 267.936 143.602 267.849 143.742C267.761 143.882 267.732 144.05 267.769 144.211C267.554 143.654 267.211 143.155 266.767 142.755C266.326 142.456 265.784 142.342 265.26 142.438C264.735 142.535 264.27 142.835 263.965 143.272C263.693 143.732 263.599 144.276 263.7 144.8C263.801 145.325 264.09 145.795 264.513 146.121C264.28 146.053 264.03 146.07 263.808 146.168C263.586 146.266 263.406 146.439 263.299 146.658C262.125 148.767 263.691 149.863 265.476 150.18C267.413 150.489 268.885 150.932 269.957 148.802Z" fill="#FFE9B3"/>
<path d="M277.393 155.847C277.752 155.232 277.89 154.513 277.785 153.808C277.723 153.46 277.547 153.142 277.285 152.905C277.023 152.667 276.689 152.524 276.337 152.497L276.419 151.37C276.439 151.24 276.439 151.108 276.419 150.978C276.382 150.818 276.283 150.678 276.143 150.59C276.003 150.502 275.834 150.474 275.673 150.511C275.512 150.548 275.373 150.647 275.285 150.787C275.197 150.926 275.169 151.095 275.205 151.256C274.99 150.699 274.647 150.2 274.204 149.8C273.762 149.501 273.221 149.387 272.696 149.483C272.172 149.58 271.706 149.88 271.401 150.317C271.13 150.777 271.035 151.321 271.136 151.845C271.237 152.37 271.526 152.84 271.949 153.166C271.716 153.098 271.467 153.115 271.245 153.213C271.023 153.311 270.842 153.484 270.736 153.703C269.562 155.812 271.127 156.908 272.912 157.225C274.849 157.534 276.321 157.976 277.393 155.847Z" fill="#FFE9B3"/>
<path d="M263.303 158.587C263.662 157.972 263.8 157.252 263.695 156.548C263.633 156.2 263.457 155.882 263.195 155.644C262.933 155.407 262.599 155.264 262.247 155.237L262.329 154.11C262.349 153.98 262.349 153.848 262.329 153.718C262.292 153.557 262.193 153.418 262.053 153.33C261.913 153.242 261.744 153.214 261.583 153.25C261.422 153.287 261.283 153.387 261.195 153.526C261.107 153.666 261.079 153.835 261.115 153.996C260.9 153.439 260.557 152.94 260.114 152.54C259.672 152.24 259.131 152.126 258.606 152.223C258.082 152.32 257.616 152.619 257.311 153.057C257.04 153.517 256.945 154.06 257.046 154.585C257.147 155.11 257.436 155.58 257.859 155.906C257.626 155.838 257.377 155.855 257.155 155.953C256.933 156.051 256.752 156.224 256.646 156.442C255.472 158.552 257.037 159.648 258.822 159.965C260.759 160.274 262.231 160.716 263.303 158.587Z" fill="#FFE9B3"/>
<path d="M260.172 142.54C260.531 141.925 260.669 141.205 260.564 140.501C260.502 140.153 260.326 139.835 260.064 139.597C259.802 139.36 259.468 139.217 259.115 139.19L259.198 138.063C259.218 137.933 259.218 137.801 259.198 137.671C259.161 137.51 259.062 137.371 258.922 137.283C258.782 137.195 258.613 137.167 258.452 137.203C258.291 137.24 258.152 137.34 258.064 137.479C257.976 137.619 257.948 137.788 257.984 137.949C257.769 137.392 257.426 136.893 256.982 136.493C256.541 136.193 256 136.079 255.475 136.176C254.951 136.273 254.485 136.572 254.18 137.01C253.908 137.47 253.814 138.013 253.915 138.538C254.016 139.063 254.305 139.533 254.728 139.859C254.495 139.791 254.245 139.808 254.023 139.906C253.801 140.004 253.621 140.177 253.515 140.395C252.341 142.505 253.906 143.601 255.691 143.918C257.628 144.227 259.1 144.669 260.172 142.54Z" fill="#FFE9B3"/>
<path d="M268.391 140.583C268.75 139.968 268.888 139.248 268.783 138.544C268.721 138.196 268.545 137.878 268.283 137.64C268.021 137.403 267.687 137.26 267.335 137.233L267.417 136.106C267.437 135.976 267.437 135.844 267.417 135.714C267.38 135.553 267.281 135.414 267.141 135.326C267.001 135.238 266.832 135.21 266.671 135.247C266.51 135.283 266.371 135.383 266.283 135.523C266.195 135.662 266.167 135.831 266.204 135.992C265.988 135.435 265.645 134.936 265.202 134.536C264.76 134.236 264.219 134.122 263.694 134.219C263.17 134.316 262.704 134.615 262.399 135.053C262.128 135.513 262.033 136.056 262.134 136.581C262.235 137.106 262.524 137.576 262.947 137.902C262.714 137.834 262.465 137.851 262.243 137.949C262.021 138.047 261.84 138.22 261.734 138.438C260.56 140.548 262.125 141.644 263.91 141.961C265.847 142.27 267.319 142.712 268.391 140.583Z" fill="#FFE9B3"/>
<path d="M251.953 148.02C252.312 147.404 252.45 146.685 252.344 145.98C252.283 145.632 252.107 145.314 251.845 145.077C251.583 144.839 251.249 144.696 250.896 144.669L250.978 143.542C250.998 143.412 250.998 143.28 250.978 143.151C250.942 142.99 250.842 142.85 250.703 142.762C250.563 142.675 250.394 142.646 250.233 142.683C250.072 142.72 249.932 142.819 249.845 142.959C249.757 143.099 249.728 143.268 249.765 143.429C249.55 142.871 249.207 142.373 248.763 141.973C248.322 141.673 247.781 141.559 247.256 141.656C246.731 141.752 246.266 142.052 245.961 142.489C245.689 142.949 245.595 143.493 245.696 144.018C245.797 144.542 246.086 145.012 246.509 145.339C246.276 145.271 246.026 145.287 245.804 145.385C245.582 145.483 245.402 145.657 245.295 145.875C244.121 147.984 245.687 149.08 247.472 149.397C249.409 149.706 250.881 150.149 251.953 148.02Z" fill="#FFE9B3"/>
<path d="M245.718 165.973C247.753 165.808 249.761 165.288 251.804 165.315C254.477 165.35 257.049 166.317 259.483 167.421C260.198 167.697 260.854 168.106 261.417 168.626C261.818 169.089 262.11 169.636 262.272 170.227C262.433 170.817 262.459 171.437 262.348 172.039C262.119 173.244 261.642 174.387 260.947 175.397C260.235 176.528 259.354 177.644 258.113 178.137C257.419 178.377 256.691 178.502 255.957 178.509C252.892 178.677 249.769 178.509 246.861 177.526C245.37 177.018 243.957 176.305 242.497 175.703C237.843 173.777 232.81 173.018 227.867 172.047C227.616 172.017 227.376 171.924 227.17 171.777C226.141 170.888 228.376 167.687 228.9 166.791C229.785 165.268 230.587 165.104 232.38 165.061C236.857 164.947 241.229 166.25 245.718 165.973Z" fill="#A0616A"/>
<path d="M280.54 176.802C279.123 176.106 277.851 175.143 276.446 174.419C274.677 173.509 272.731 172.992 270.744 172.904C269.456 172.845 268.055 173.018 267.119 173.906C265.785 175.174 265.945 177.331 266.384 179.119C267.049 181.8 268.387 184.638 270.959 185.652C271.969 185.99 273.025 186.17 274.09 186.188C278.853 186.517 283.812 186.814 288.227 185.014C288.551 184.913 288.828 184.701 289.01 184.415C289.202 184.023 289.01 183.554 288.814 183.158C288.11 181.742 286.994 178.771 285.632 177.886C284.364 177.037 282.121 177.577 280.54 176.802Z" fill="#A0616A"/>
<path opacity="0.1" d="M291.734 155.487C294.343 159.626 296.488 164.041 298.129 168.65C298.588 169.783 298.853 170.986 298.912 172.207C298.912 173.566 298.438 174.881 297.941 176.164C296.358 180.272 294.52 184.277 292.438 188.157C291.812 189.331 291.096 190.556 289.855 191.202C288.552 191.883 286.947 191.777 285.456 191.593C281.719 191.184 278.014 190.528 274.364 189.628C276.661 189.703 278.736 187.98 279.796 186.106C280.857 184.231 281.092 182.086 281.268 179.992C281.429 178.865 281.382 177.717 281.127 176.607C280.979 176.034 280.694 175.505 280.297 175.065C279.901 174.626 279.404 174.289 278.849 174.082C278.744 173.061 279.718 172.204 280.724 171.734C281.73 171.264 282.873 171.002 283.691 170.297C284.896 169.264 285.068 167.538 284.673 166.074C284.278 164.611 283.417 163.288 282.806 161.883C281.949 159.926 286.372 157.867 286.548 155.753C286.587 155.276 286.25 156.145 286.548 155.753C286.845 155.362 288.693 156.72 289.112 156.536C291.863 155.346 290.211 153.069 291.734 155.487Z" fill="black"/>
<path d="M292.587 155.487C295.196 159.627 297.342 164.041 298.986 168.65C299.447 169.783 299.712 170.986 299.769 172.207C299.769 173.566 299.295 174.881 298.802 176.164C297.217 180.271 295.379 184.276 293.299 188.157C292.673 189.331 291.957 190.556 290.716 191.202C289.413 191.883 287.804 191.777 286.317 191.593C282.579 191.185 278.872 190.529 275.221 189.628C277.515 189.703 279.593 187.98 280.65 186.106C281.706 184.231 281.949 182.086 282.125 179.992C282.285 178.865 282.237 177.717 281.984 176.607C281.835 176.034 281.549 175.506 281.153 175.067C280.757 174.628 280.261 174.29 279.706 174.082C279.597 173.061 280.575 172.204 281.581 171.734C282.587 171.264 283.73 171.002 284.548 170.297C285.75 169.264 285.922 167.538 285.526 166.074C285.131 164.611 284.27 163.288 283.659 161.883C282.805 159.923 282.448 157.783 282.618 155.652C282.627 155.164 282.77 154.689 283.033 154.278C283.325 153.929 283.701 153.659 284.125 153.495C286.888 152.321 291.065 153.069 292.587 155.487Z" fill="#F98A8D"/>
<path opacity="0.1" d="M208.924 151.605C206.384 153.953 203.761 156.434 202.524 159.671C201.851 161.436 201.628 163.339 201.409 165.217C201.041 168.419 200.708 171.847 202.192 174.704C203.836 177.836 207.28 179.515 210.513 180.935C211.631 181.46 212.789 181.895 213.977 182.235C215.532 182.583 217.119 182.777 218.712 182.814L235.029 183.722C232.9 181.577 231.538 178.219 231.828 175.209C232.09 172.521 233.393 170.055 234.704 167.703C235.386 166.489 236.157 165.213 237.413 164.614C232.097 163.44 226.631 163.096 221.209 163.597C220.845 163.628 220.427 163.64 220.188 163.35C220.069 163.168 220.014 162.952 220.031 162.736C220.031 160.305 221.847 158.286 222.599 155.976C223.8 152.274 219.71 154.305 216.031 153.033C212.352 151.761 209.675 147.785 208.924 151.605Z" fill="black"/>
<path d="M207.749 151.605C205.209 153.953 202.587 156.434 201.35 159.671C200.677 161.436 200.454 163.339 200.235 165.217C199.867 168.419 199.534 171.847 201.018 174.705C202.661 177.836 206.106 179.515 209.339 180.935C210.457 181.46 211.615 181.895 212.802 182.235C214.358 182.583 215.944 182.777 217.538 182.814L233.855 183.722C231.726 181.577 230.364 178.219 230.654 175.209C230.916 172.521 232.219 170.055 233.53 167.703C234.211 166.489 234.982 165.213 236.239 164.614C230.923 163.44 225.457 163.096 220.035 163.597C219.671 163.628 219.252 163.64 219.014 163.35C218.895 163.169 218.84 162.952 218.857 162.736C218.857 160.305 220.673 158.286 221.425 155.977C222.626 152.274 220.536 147.757 216.853 146.478C213.17 145.198 208.501 147.785 207.749 151.605Z" fill="#F98A8D"/>
<path d="M248.728 109.589C259.644 109.589 268.493 105.909 268.493 101.37C268.493 96.8305 259.644 93.1506 248.728 93.1506C237.812 93.1506 228.963 96.8305 228.963 101.37C228.963 105.909 237.812 109.589 248.728 109.589Z" fill="#2F2E41"/>
<path opacity="0.1" d="M248.337 106.067C238.877 106.067 230.971 103.299 229.029 99.6086C228.735 100.149 228.578 100.754 228.571 101.37C228.571 105.91 237.421 109.589 248.337 109.589C259.252 109.589 268.102 105.91 268.102 101.37C268.096 100.754 267.938 100.149 267.644 99.6086C265.703 103.299 257.796 106.067 248.337 106.067Z" fill="black"/>
<path d="M275.049 106.892C274.429 106.542 273.708 106.414 273.006 106.528C272.659 106.594 272.343 106.772 272.108 107.037C271.874 107.301 271.734 107.636 271.71 107.988L270.583 107.922C270.453 107.908 270.321 107.915 270.192 107.941C270.039 107.989 269.909 108.092 269.827 108.23C269.746 108.368 269.718 108.532 269.75 108.689C269.791 108.844 269.889 108.978 270.025 109.064C270.16 109.15 270.323 109.183 270.481 109.155C269.927 109.376 269.432 109.724 269.037 110.172C268.743 110.617 268.635 111.159 268.738 111.682C268.84 112.205 269.145 112.666 269.585 112.967C270.048 113.233 270.591 113.322 271.115 113.216C271.638 113.11 272.104 112.817 272.427 112.391C272.361 112.625 272.38 112.874 272.48 113.094C272.58 113.315 272.756 113.493 272.975 113.597C275.096 114.744 276.176 113.186 276.466 111.382C276.767 109.421 277.19 107.949 275.049 106.892Z" fill="#FFE9B3"/>
<path opacity="0.15" d="M275.049 106.892C274.429 106.542 273.708 106.414 273.006 106.528C272.659 106.594 272.343 106.772 272.108 107.037C271.874 107.301 271.734 107.636 271.71 107.988L270.583 107.922C270.453 107.908 270.321 107.915 270.192 107.941C270.039 107.989 269.909 108.092 269.827 108.23C269.746 108.368 269.718 108.532 269.75 108.689C269.791 108.844 269.889 108.978 270.025 109.064C270.16 109.15 270.323 109.183 270.481 109.155C269.927 109.376 269.432 109.724 269.037 110.172C268.743 110.617 268.635 111.159 268.738 111.682C268.84 112.205 269.145 112.666 269.585 112.967C270.048 113.233 270.591 113.322 271.115 113.216C271.638 113.11 272.104 112.817 272.427 112.391C272.361 112.625 272.38 112.874 272.48 113.094C272.58 113.315 272.756 113.493 272.975 113.597C275.096 114.744 276.176 113.186 276.466 111.382C276.767 109.421 277.19 107.949 275.049 106.892Z" fill="black"/>
<path d="M293.836 136.638C293.216 136.288 292.495 136.16 291.793 136.274C291.445 136.339 291.13 136.518 290.895 136.782C290.661 137.047 290.521 137.381 290.497 137.734L289.37 137.667C289.239 137.654 289.107 137.66 288.978 137.687C288.826 137.735 288.696 137.838 288.614 137.976C288.532 138.114 288.505 138.277 288.536 138.434C288.578 138.59 288.676 138.723 288.812 138.81C288.947 138.896 289.11 138.928 289.268 138.9C288.713 139.121 288.219 139.47 287.824 139.918C287.53 140.362 287.422 140.905 287.525 141.428C287.627 141.95 287.932 142.412 288.372 142.712C288.834 142.979 289.378 143.068 289.901 142.962C290.424 142.856 290.891 142.562 291.213 142.137C291.147 142.37 291.166 142.619 291.267 142.84C291.367 143.061 291.542 143.239 291.761 143.342C293.883 144.489 294.963 142.932 295.252 141.127C295.554 139.166 295.977 137.695 293.836 136.638Z" fill="#FFE9B3"/>
<path opacity="0.15" d="M293.836 136.638C293.216 136.288 292.495 136.16 291.793 136.274C291.445 136.339 291.13 136.518 290.895 136.782C290.661 137.047 290.521 137.381 290.497 137.734L289.37 137.667C289.239 137.654 289.107 137.66 288.978 137.687C288.826 137.735 288.696 137.838 288.614 137.976C288.532 138.114 288.505 138.277 288.536 138.434C288.578 138.59 288.676 138.723 288.812 138.81C288.947 138.896 289.11 138.928 289.268 138.9C288.713 139.121 288.219 139.47 287.824 139.918C287.53 140.362 287.422 140.905 287.525 141.428C287.627 141.95 287.932 142.412 288.372 142.712C288.834 142.979 289.378 143.068 289.901 142.962C290.424 142.856 290.891 142.562 291.213 142.137C291.147 142.37 291.166 142.619 291.267 142.84C291.367 143.061 291.542 143.239 291.761 143.342C293.883 144.489 294.963 142.932 295.252 141.127C295.554 139.166 295.977 137.695 293.836 136.638Z" fill="black"/>
<path d="M315.753 168.341C315.134 167.99 314.413 167.862 313.71 167.977C313.363 168.042 313.047 168.221 312.813 168.485C312.578 168.749 312.438 169.084 312.415 169.436L311.288 169.37C311.157 169.356 311.025 169.363 310.896 169.389C310.743 169.438 310.614 169.54 310.532 169.678C310.45 169.816 310.422 169.98 310.454 170.137C310.496 170.292 310.594 170.426 310.729 170.512C310.865 170.598 311.028 170.631 311.186 170.603C310.631 170.824 310.136 171.172 309.742 171.62C309.447 172.065 309.34 172.607 309.442 173.13C309.545 173.653 309.849 174.115 310.29 174.415C310.752 174.681 311.296 174.77 311.819 174.664C312.342 174.558 312.809 174.265 313.131 173.84C313.065 174.073 313.084 174.322 313.184 174.543C313.285 174.763 313.46 174.941 313.679 175.045C315.8 176.192 316.881 174.634 317.17 172.83C317.472 170.869 317.894 169.397 315.753 168.341Z" fill="#FFE9B3"/>
<path opacity="0.15" d="M315.753 168.341C315.134 167.99 314.413 167.862 313.71 167.977C313.363 168.042 313.047 168.221 312.813 168.485C312.578 168.749 312.438 169.084 312.415 169.436L311.288 169.37C311.157 169.356 311.025 169.363 310.896 169.389C310.743 169.438 310.614 169.54 310.532 169.678C310.45 169.816 310.422 169.98 310.454 170.137C310.496 170.292 310.594 170.426 310.729 170.512C310.865 170.598 311.028 170.631 311.186 170.603C310.631 170.824 310.136 171.172 309.742 171.62C309.447 172.065 309.34 172.607 309.442 173.13C309.545 173.653 309.849 174.115 310.29 174.415C310.752 174.681 311.296 174.77 311.819 174.664C312.342 174.558 312.809 174.265 313.131 173.84C313.065 174.073 313.084 174.322 313.184 174.543C313.285 174.763 313.46 174.941 313.679 175.045C315.8 176.192 316.881 174.634 317.17 172.83C317.472 170.869 317.894 169.397 315.753 168.341Z" fill="black"/>
<path d="M282.09 98.3132C282.449 97.6977 282.587 96.9785 282.481 96.274C282.42 95.9257 282.244 95.6078 281.982 95.3704C281.72 95.133 281.386 94.9896 281.033 94.9629L281.115 93.8357C281.135 93.706 281.135 93.574 281.115 93.4443C281.079 93.2834 280.979 93.1437 280.84 93.056C280.7 92.9683 280.531 92.9397 280.37 92.9766C280.209 93.0134 280.069 93.1127 279.982 93.2525C279.894 93.3923 279.865 93.5613 279.902 93.7222C279.687 93.165 279.344 92.6662 278.9 92.2662C278.459 91.9663 277.918 91.8524 277.393 91.9491C276.868 92.0458 276.403 92.3454 276.098 92.7828C275.826 93.2429 275.732 93.7864 275.833 94.3111C275.934 94.8358 276.223 95.3056 276.646 95.6321C276.413 95.5641 276.163 95.5806 275.941 95.6787C275.719 95.7769 275.539 95.9503 275.432 96.1683C274.258 98.2779 275.824 99.3738 277.609 99.6908C279.546 100 281.018 100.442 282.09 98.3132Z" fill="#FFE9B3"/>
<path d="M279.742 84.6144C280.1 83.999 280.238 83.2797 280.133 82.5753C280.072 82.227 279.896 81.9091 279.634 81.6717C279.371 81.4343 279.038 81.2909 278.685 81.2641L278.767 80.1369C278.787 80.0072 278.787 79.8752 278.767 79.7455C278.73 79.5846 278.631 79.445 278.491 79.3573C278.351 79.2696 278.182 79.241 278.022 79.2778C277.861 79.3147 277.721 79.4139 277.633 79.5538C277.546 79.6936 277.517 79.8625 277.554 80.0234C277.339 79.4662 276.995 78.9675 276.552 78.5675C276.111 78.2676 275.569 78.1537 275.045 78.2504C274.52 78.3471 274.055 78.6466 273.75 79.0841C273.478 79.5442 273.384 80.0877 273.485 80.6124C273.585 81.1371 273.875 81.6069 274.297 81.9334C274.064 81.8654 273.815 81.8819 273.593 81.98C273.371 82.0781 273.191 82.2515 273.084 82.4696C271.91 84.5792 273.476 85.6751 275.26 85.9921C277.198 86.3013 278.669 86.7436 279.742 84.6144Z" fill="#FFE9B3"/>
<path d="M221.037 197.303C220.417 196.953 219.697 196.825 218.994 196.939C218.647 197.005 218.331 197.183 218.097 197.448C217.862 197.712 217.722 198.047 217.699 198.399L216.571 198.333C216.442 198.313 216.31 198.313 216.18 198.333C216.027 198.381 215.897 198.484 215.816 198.622C215.734 198.76 215.706 198.923 215.738 199.08C215.779 199.235 215.878 199.369 216.013 199.455C216.149 199.542 216.312 199.574 216.47 199.546C215.915 199.767 215.42 200.116 215.025 200.564C214.731 201.008 214.624 201.55 214.726 202.073C214.829 202.596 215.133 203.058 215.573 203.358C216.036 203.625 216.58 203.713 217.103 203.607C217.626 203.501 218.093 203.208 218.415 202.783C218.349 203.016 218.368 203.265 218.468 203.486C218.569 203.707 218.744 203.885 218.963 203.988C221.084 205.135 222.164 203.597 222.454 201.773C222.755 199.832 223.178 198.36 221.037 197.303Z" fill="#FFE9B3"/>
<path opacity="0.15" d="M221.037 197.303C220.417 196.953 219.697 196.825 218.994 196.939C218.647 197.005 218.331 197.183 218.097 197.448C217.862 197.712 217.722 198.047 217.699 198.399L216.571 198.333C216.442 198.313 216.31 198.313 216.18 198.333C216.027 198.381 215.897 198.484 215.816 198.622C215.734 198.76 215.706 198.923 215.738 199.08C215.779 199.235 215.878 199.369 216.013 199.455C216.149 199.542 216.312 199.574 216.47 199.546C215.915 199.767 215.42 200.116 215.025 200.564C214.731 201.008 214.624 201.55 214.726 202.073C214.829 202.596 215.133 203.058 215.573 203.358C216.036 203.625 216.58 203.713 217.103 203.607C217.626 203.501 218.093 203.208 218.415 202.783C218.349 203.016 218.368 203.265 218.468 203.486C218.569 203.707 218.744 203.885 218.963 203.988C221.084 205.135 222.164 203.597 222.454 201.773C222.755 199.832 223.178 198.36 221.037 197.303Z" fill="black"/>
<path d="M206.943 196.552C207.302 195.936 207.44 195.217 207.335 194.513C207.273 194.164 207.097 193.847 206.835 193.609C206.573 193.372 206.239 193.228 205.887 193.202L205.969 192.074C205.989 191.945 205.989 191.813 205.969 191.683C205.932 191.522 205.833 191.382 205.693 191.295C205.553 191.207 205.384 191.178 205.223 191.215C205.062 191.252 204.923 191.351 204.835 191.491C204.747 191.631 204.719 191.8 204.755 191.961C204.54 191.404 204.197 190.905 203.753 190.505C203.312 190.205 202.771 190.091 202.246 190.188C201.722 190.285 201.256 190.584 200.951 191.022C200.679 191.482 200.585 192.025 200.686 192.55C200.787 193.075 201.076 193.544 201.499 193.871C201.266 193.803 201.017 193.819 200.795 193.917C200.573 194.016 200.392 194.189 200.286 194.407C199.112 196.517 200.677 197.613 202.462 197.93C204.399 198.239 205.871 198.681 206.943 196.552Z" fill="#FFE9B3"/>
<path d="M225.73 175.025C226.089 174.41 226.227 173.691 226.121 172.986C226.06 172.638 225.884 172.32 225.622 172.083C225.36 171.845 225.026 171.702 224.673 171.675L224.755 170.548C224.775 170.418 224.775 170.286 224.755 170.157C224.719 169.996 224.619 169.856 224.479 169.768C224.34 169.681 224.171 169.652 224.01 169.689C223.849 169.726 223.709 169.825 223.621 169.965C223.534 170.105 223.505 170.274 223.542 170.434C223.327 169.877 222.984 169.378 222.54 168.978C222.099 168.679 221.557 168.565 221.033 168.661C220.508 168.758 220.043 169.058 219.738 169.495C219.466 169.955 219.372 170.499 219.473 171.023C219.574 171.548 219.863 172.018 220.286 172.344C220.053 172.276 219.803 172.293 219.581 172.391C219.359 172.489 219.179 172.663 219.072 172.881C217.898 174.99 219.464 176.086 221.249 176.403C223.186 176.712 224.658 177.155 225.73 175.025Z" fill="#FFE9B3"/>
<path d="M195.659 182.133C191.847 181.159 187.879 180.176 184.027 180.959C182.313 181.307 180.693 181.996 179.025 182.524C174.92 183.797 170.58 184.128 166.329 183.493C162.078 182.858 158.024 181.273 154.47 178.857C150.477 176.098 146.329 172.074 141.601 173.166C140.329 173.464 139.151 174.129 137.851 174.274C135.413 174.552 133.155 172.971 130.736 172.599C126.571 171.961 122.787 174.881 119.585 177.62L102.704 192.067C101.425 193.162 100.016 194.611 100.356 196.254C100.877 198.669 104.575 198.994 105.526 201.284C106.215 202.924 105.076 204.834 103.569 205.769C102.063 206.705 100.239 206.943 98.5479 207.511C95.9932 208.367 93.7034 209.869 91.9011 211.871C90.0987 213.874 88.8452 216.309 88.2622 218.939C87.9648 220.341 87.8708 221.796 87.319 223.119C86.7241 224.56 85.6477 225.742 84.8532 227.08C81.3777 232.912 83.6595 240.65 81.0215 246.904C79.6243 250.223 76.8258 253.432 77.7103 256.92C78.5166 260.082 81.9882 261.699 85.1467 262.536C85.5186 264.689 84.7554 266.207 83.1898 267.753C96.3209 273.151 110.415 278.661 124.344 275.902C129.123 274.959 133.777 273.045 138.646 273.123C142.102 273.178 145.519 274.243 148.967 274C156.243 273.487 162.924 267.268 169.973 269.135C167.847 269.28 167.061 272.387 168.313 274.114C169.566 275.84 171.871 276.391 173.992 276.595C176.113 276.798 178.36 276.814 180.2 277.894C178.806 280.795 173.816 281.808 174.297 284.998C174.474 286.149 175.405 287.022 176.329 287.738C185.82 295.006 198.892 294.309 210.771 295.566C219.53 296.481 228.117 298.622 236.849 299.765C250.798 301.585 264.939 300.841 278.982 300.09C281.53 299.953 284.387 299.671 286.027 297.714C288.204 295.108 286.994 291.245 286.72 287.863C285.656 274.63 300.129 265.523 304.184 252.881C305.75 247.945 305.683 242.642 305.401 237.464C304.771 225.785 302.943 213.464 295.499 204.446C289.37 197.01 280.207 192.822 271.084 189.753C265.276 187.796 259.19 186.188 253.08 186.763C242.826 187.73 232.466 194.732 222.998 190.677C220.493 189.605 218.36 187.832 215.98 186.509C209.726 182.975 202.63 183.914 195.659 182.133Z" fill="#FF7DB9"/>
<g opacity="0.1">
<path d="M248.614 289.573C239.883 288.431 231.311 286.301 222.536 285.374C210.646 284.129 197.573 284.826 188.094 277.546C187.17 276.838 186.239 275.98 186.063 274.806C185.581 271.624 190.571 270.603 191.965 267.703C190.125 266.622 187.883 266.611 185.757 266.403C183.632 266.196 181.331 265.648 180.078 263.922C178.826 262.196 179.613 259.088 181.738 258.943C174.693 257.076 168.008 263.296 160.732 263.808C157.284 264.051 153.867 262.986 150.411 262.932C145.542 262.853 140.888 264.767 136.11 265.71C122.18 268.45 108.09 262.971 94.955 257.562C96.5009 255.996 97.272 254.497 96.9119 252.344C93.7612 251.507 90.2896 249.89 89.4755 246.728C88.591 243.241 91.3894 240.031 92.7867 236.712C95.4246 230.45 93.1428 222.72 96.6184 216.888C97.4011 215.55 98.4892 214.368 99.0841 212.928C99.6282 211.605 99.7299 210.149 100.027 208.748C100.156 208.134 100.326 207.53 100.536 206.939C99.8786 207.119 99.2133 207.284 98.5792 207.495C96.0245 208.351 93.7348 209.853 91.9324 211.856C90.1301 213.858 88.8765 216.293 88.2935 218.924C87.9961 220.325 87.9021 221.781 87.3503 223.104C86.7554 224.544 85.679 225.726 84.8845 227.065C81.409 232.896 83.6908 240.634 81.0528 246.888C79.6556 250.207 76.8571 253.417 77.7417 256.904C78.5479 260.067 82.0195 261.683 85.1781 262.521C85.5499 264.673 84.7867 266.192 83.2211 267.738C96.3561 273.135 110.446 278.646 124.376 275.887C129.155 274.943 133.808 273.029 138.677 273.108C142.133 273.162 145.55 274.227 148.998 273.984C156.274 273.472 162.955 267.252 170.004 269.119C167.879 269.264 167.092 272.372 168.344 274.098C169.597 275.824 171.902 276.376 174.023 276.579C176.145 276.783 178.391 276.798 180.231 277.879C178.838 280.779 173.847 281.793 174.329 284.982C174.505 286.133 175.436 287.006 176.36 287.722C185.851 294.99 198.924 294.294 210.802 295.55C219.562 296.466 228.149 298.607 236.881 299.75C250.83 301.569 264.971 300.826 279.014 300.074C281.562 299.937 284.419 299.656 286.059 297.699C287.761 295.656 287.389 292.845 287.018 290.094C274.196 290.759 261.323 291.233 248.614 289.573Z" fill="black"/>
<path d="M104.963 200.407C106.511 199.029 108.327 197.984 110.297 197.339C111.988 196.791 113.82 196.528 115.319 195.597C116.818 194.665 117.969 192.751 117.276 191.112C116.325 188.838 112.626 188.497 112.106 186.082C111.867 184.971 112.434 183.949 113.225 183.065L102.701 192.067C101.421 193.162 100.012 194.611 100.352 196.254C100.81 198.321 103.573 198.873 104.963 200.407Z" fill="black"/>
</g>
<path d="M140.407 192.638C140.766 192.023 140.904 191.303 140.798 190.599C140.737 190.251 140.561 189.933 140.299 189.695C140.037 189.458 139.703 189.314 139.35 189.288L139.432 188.16C139.446 188.03 139.439 187.898 139.413 187.769C139.376 187.608 139.277 187.469 139.137 187.381C138.997 187.293 138.828 187.265 138.667 187.301C138.506 187.338 138.367 187.437 138.279 187.577C138.191 187.717 138.163 187.886 138.2 188.047C137.984 187.49 137.641 186.991 137.198 186.591C136.757 186.291 136.215 186.177 135.69 186.274C135.166 186.371 134.701 186.67 134.395 187.108C134.124 187.568 134.029 188.111 134.13 188.636C134.231 189.161 134.52 189.63 134.943 189.957C134.71 189.889 134.461 189.905 134.239 190.004C134.017 190.102 133.837 190.275 133.73 190.493C132.556 192.603 134.121 193.699 135.906 194.016C137.863 194.325 139.335 194.767 140.407 192.638Z" fill="#FFE9B3"/>
<path d="M197.55 268.568C197.908 267.952 198.047 267.233 197.941 266.528C197.88 266.18 197.704 265.862 197.442 265.625C197.18 265.387 196.846 265.244 196.493 265.217L196.575 264.09C196.595 263.96 196.595 263.828 196.575 263.699C196.538 263.538 196.439 263.398 196.299 263.31C196.16 263.223 195.991 263.194 195.83 263.231C195.669 263.268 195.529 263.367 195.441 263.507C195.354 263.647 195.325 263.816 195.362 263.977C195.147 263.419 194.804 262.921 194.36 262.521C193.919 262.221 193.377 262.107 192.853 262.204C192.328 262.3 191.863 262.6 191.558 263.037C191.286 263.497 191.192 264.041 191.293 264.566C191.394 265.09 191.683 265.56 192.106 265.887C191.873 265.819 191.623 265.835 191.401 265.933C191.179 266.031 190.999 266.205 190.892 266.423C189.718 268.532 191.284 269.628 193.068 269.945C195.006 270.254 196.477 270.697 197.55 268.568Z" fill="#FFE9B3"/>
<path d="M236.689 193.812C237.047 193.197 237.186 192.477 237.08 191.773C237.019 191.425 236.843 191.107 236.581 190.869C236.319 190.632 235.985 190.489 235.632 190.462L235.714 189.335C235.734 189.205 235.734 189.073 235.714 188.943C235.677 188.782 235.578 188.643 235.438 188.555C235.299 188.467 235.13 188.439 234.969 188.476C234.808 188.512 234.668 188.612 234.58 188.751C234.493 188.891 234.464 189.06 234.501 189.221C234.286 188.664 233.943 188.165 233.499 187.765C233.058 187.465 232.516 187.351 231.992 187.448C231.467 187.545 231.002 187.844 230.697 188.282C230.425 188.742 230.331 189.285 230.432 189.81C230.533 190.335 230.822 190.805 231.245 191.131C231.012 191.063 230.762 191.08 230.54 191.178C230.318 191.276 230.138 191.449 230.031 191.667C228.857 193.777 230.423 194.873 232.207 195.19C234.145 195.499 235.616 195.941 236.689 193.812Z" fill="#FFE9B3"/>
<path d="M244.051 192.951C244.701 192.663 245.234 192.162 245.562 191.53C245.718 191.214 245.764 190.854 245.693 190.508C245.622 190.162 245.438 189.85 245.17 189.62L245.894 188.751C245.987 188.652 246.064 188.538 246.121 188.415C246.186 188.263 246.188 188.091 246.126 187.938C246.065 187.784 245.945 187.662 245.793 187.597C245.64 187.532 245.469 187.53 245.315 187.592C245.162 187.654 245.039 187.774 244.975 187.926C245.127 187.349 245.142 186.744 245.018 186.16C244.836 185.658 244.464 185.248 243.982 185.019C243.5 184.789 242.946 184.759 242.442 184.935C241.953 185.148 241.558 185.533 241.333 186.017C241.107 186.5 241.066 187.05 241.217 187.562C241.069 187.37 240.857 187.237 240.621 187.186C240.384 187.134 240.136 187.167 239.922 187.28C237.738 188.301 238.356 190.094 239.624 191.401C240.994 192.83 241.926 194.047 244.051 192.951Z" fill="#FFE9B3"/>
<path d="M159.198 194.955C158.578 194.605 157.857 194.477 157.155 194.591C156.807 194.656 156.492 194.835 156.257 195.099C156.023 195.364 155.883 195.698 155.859 196.051L154.732 195.984C154.602 195.964 154.47 195.964 154.341 195.984C154.188 196.032 154.058 196.135 153.976 196.273C153.894 196.411 153.867 196.575 153.898 196.732C153.94 196.887 154.038 197.021 154.174 197.107C154.309 197.193 154.472 197.226 154.63 197.198C154.075 197.419 153.581 197.767 153.186 198.215C152.892 198.66 152.784 199.202 152.887 199.725C152.989 200.248 153.294 200.71 153.734 201.01C154.196 201.276 154.74 201.365 155.263 201.259C155.786 201.153 156.253 200.86 156.575 200.434C156.509 200.668 156.528 200.917 156.629 201.138C156.729 201.358 156.904 201.536 157.123 201.64C159.245 202.787 160.325 201.249 160.614 199.425C160.916 197.483 161.339 196.012 159.198 194.955Z" fill="#FFE9B3"/>
<path opacity="0.15" d="M159.198 194.955C158.578 194.605 157.857 194.477 157.155 194.591C156.807 194.656 156.492 194.835 156.257 195.099C156.023 195.364 155.883 195.698 155.859 196.051L154.732 195.984C154.602 195.964 154.47 195.964 154.341 195.984C154.188 196.032 154.058 196.135 153.976 196.273C153.894 196.411 153.867 196.575 153.898 196.732C153.94 196.887 154.038 197.021 154.174 197.107C154.309 197.193 154.472 197.226 154.63 197.198C154.075 197.419 153.581 197.767 153.186 198.215C152.892 198.66 152.784 199.202 152.887 199.725C152.989 200.248 153.294 200.71 153.734 201.01C154.196 201.276 154.74 201.365 155.263 201.259C155.786 201.153 156.253 200.86 156.575 200.434C156.509 200.668 156.528 200.917 156.629 201.138C156.729 201.358 156.904 201.536 157.123 201.64C159.245 202.787 160.325 201.249 160.614 199.425C160.916 197.483 161.339 196.012 159.198 194.955Z" fill="black"/>
<path d="M194.047 224.07C194.167 223.37 194.049 222.649 193.71 222.023C193.533 221.717 193.258 221.479 192.93 221.346C192.602 221.213 192.239 221.194 191.898 221.292L191.585 220.204C191.554 220.065 191.501 219.933 191.429 219.812C191.338 219.674 191.197 219.577 191.035 219.542C190.873 219.508 190.704 219.54 190.566 219.63C190.427 219.72 190.33 219.862 190.296 220.024C190.262 220.186 190.293 220.355 190.384 220.493C189.991 220.042 189.498 219.691 188.943 219.468C188.425 219.339 187.878 219.419 187.419 219.691C186.959 219.962 186.626 220.404 186.489 220.92C186.393 221.445 186.492 221.987 186.767 222.445C187.042 222.903 187.475 223.244 187.984 223.405C187.742 223.421 187.514 223.522 187.339 223.691C187.164 223.859 187.055 224.084 187.029 224.325C186.638 226.708 188.485 227.205 190.282 226.877C192.239 226.521 193.765 226.419 194.047 224.07Z" fill="#FFE9B3"/>
<path opacity="0.15" d="M194.047 224.07C194.167 223.37 194.049 222.649 193.71 222.023C193.533 221.717 193.258 221.479 192.93 221.346C192.602 221.213 192.239 221.194 191.898 221.292L191.585 220.204C191.554 220.065 191.501 219.933 191.429 219.812C191.338 219.674 191.197 219.577 191.035 219.542C190.873 219.508 190.704 219.54 190.566 219.63C190.427 219.72 190.33 219.862 190.296 220.024C190.262 220.186 190.293 220.355 190.384 220.493C189.991 220.042 189.498 219.691 188.943 219.468C188.425 219.339 187.878 219.419 187.419 219.691C186.959 219.962 186.626 220.404 186.489 220.92C186.393 221.445 186.492 221.987 186.767 222.445C187.042 222.903 187.475 223.244 187.984 223.405C187.742 223.421 187.514 223.522 187.339 223.691C187.164 223.859 187.055 224.084 187.029 224.325C186.638 226.708 188.485 227.205 190.282 226.877C192.239 226.521 193.765 226.419 194.047 224.07Z" fill="black"/>
<path d="M241.014 188.454C241.134 187.753 241.015 187.032 240.677 186.407C240.5 186.101 240.225 185.862 239.897 185.73C239.569 185.597 239.205 185.578 238.865 185.675L238.552 184.587C238.521 184.449 238.468 184.317 238.395 184.196C238.351 184.127 238.293 184.068 238.225 184.022C238.158 183.975 238.082 183.943 238.001 183.926C237.921 183.909 237.839 183.908 237.758 183.923C237.678 183.938 237.601 183.969 237.532 184.014C237.464 184.058 237.405 184.116 237.358 184.184C237.312 184.251 237.279 184.327 237.263 184.408C237.246 184.488 237.245 184.57 237.26 184.651C237.275 184.731 237.306 184.808 237.35 184.877C236.958 184.426 236.464 184.074 235.91 183.851C235.392 183.723 234.845 183.803 234.385 184.074C233.926 184.346 233.592 184.788 233.456 185.303C233.36 185.829 233.458 186.371 233.734 186.829C234.009 187.286 234.442 187.628 234.951 187.789C234.709 187.805 234.48 187.906 234.306 188.074C234.131 188.243 234.021 188.467 233.996 188.708C233.605 191.092 235.452 191.589 237.249 191.26C239.205 190.904 240.732 190.802 241.014 188.454Z" fill="#FFE9B3"/>
<path opacity="0.15" d="M241.014 188.454C241.134 187.753 241.015 187.032 240.677 186.407C240.5 186.101 240.225 185.862 239.897 185.73C239.569 185.597 239.205 185.578 238.865 185.675L238.552 184.587C238.521 184.449 238.468 184.317 238.395 184.196C238.351 184.127 238.293 184.068 238.225 184.022C238.158 183.975 238.082 183.943 238.001 183.926C237.921 183.909 237.839 183.908 237.758 183.923C237.678 183.938 237.601 183.969 237.532 184.014C237.464 184.058 237.405 184.116 237.358 184.184C237.312 184.251 237.279 184.327 237.263 184.408C237.246 184.488 237.245 184.57 237.26 184.651C237.275 184.731 237.306 184.808 237.35 184.877C236.958 184.426 236.464 184.074 235.91 183.851C235.392 183.723 234.845 183.803 234.385 184.074C233.926 184.346 233.592 184.788 233.456 185.303C233.36 185.829 233.458 186.371 233.734 186.829C234.009 187.286 234.442 187.628 234.951 187.789C234.709 187.805 234.48 187.906 234.306 188.074C234.131 188.243 234.021 188.467 233.996 188.708C233.605 191.092 235.452 191.589 237.249 191.26C239.205 190.904 240.732 190.802 241.014 188.454Z" fill="black"/>
</g>
<defs>
<clipPath id="clip0_123_26">
<rect width="400" height="311.155" fill="white"/>
</clipPath>
</defs>
</svg>
