<svg width="23" height="23" viewBox="0 0 23 23" fill="none" xmlns="http://www.w3.org/2000/svg">
<path fill-rule="evenodd" clip-rule="evenodd" d="M5 9.5837C5 13.1217 7.91595 16 11.4998 16C15.0841 16 18 13.1217 18 9.5837V6.41676C18 2.8785 15.0841 0 11.4998 0C7.91595 0 5 2.8785 5 6.41676V9.5837ZM5.92248 6.41676C5.92248 3.38071 8.42446 0.91063 11.4998 0.91063C14.5753 0.91063 17.0775 3.38071 17.0775 6.41676V9.5837C17.0775 12.6193 14.5753 15.0894 11.4998 15.0894C8.42446 15.0894 5.92248 12.6193 5.92248 9.5837V6.41676Z" fill="black"/>
<path d="M20.2861 23H2.71441C1.21745 23 0 21.806 0 20.3387V18.3722C0 17.5038 0.448535 16.3398 2.58602 15.7294L5.21408 15.0161C5.45913 14.9506 5.71176 15.0904 5.77928 15.3302C5.8468 15.57 5.70349 15.8179 5.4589 15.8843L2.83682 16.5958C0.918429 17.1438 0.918429 18.0685 0.918429 18.3725V20.3389C0.918429 21.31 1.72409 22.0996 2.71418 22.0996H20.2858C21.2761 22.0996 22.0816 21.3098 22.0816 20.3389V18.3725C22.0816 17.5522 21.4348 16.9542 20.1588 16.5947L17.6573 15.9091C17.4129 15.8422 17.2701 15.5939 17.3385 15.3541C17.407 15.1148 17.6596 14.9738 17.9044 15.0418L20.4092 15.7283C22.551 16.3321 23 17.4996 23 18.3725V20.3389C23.0005 21.806 21.783 23 20.2861 23Z" fill="black"/>
</svg>
