<svg width="15" height="15" viewBox="0 0 15 15" fill="none" xmlns="http://www.w3.org/2000/svg">
<path d="M10.3876 1.8688C10.315 1.79605 10.2288 1.73833 10.1339 1.69894C10.039 1.65956 9.9372 1.63928 9.83444 1.63928C9.73168 1.63928 9.62992 1.65956 9.53501 1.69894C9.4401 1.73833 9.35388 1.79605 9.28131 1.8688L4.08756 7.06255C4.02962 7.12038 3.98366 7.18906 3.95229 7.26466C3.92093 7.34027 3.90479 7.42132 3.90479 7.50318C3.90479 7.58503 3.92093 7.66609 3.95229 7.74169C3.98366 7.8173 4.02962 7.88598 4.08756 7.9438L9.28131 13.1376C9.58756 13.4438 10.0813 13.4438 10.3876 13.1376C10.6938 12.8313 10.6938 12.3376 10.3876 12.0313L5.86256 7.50005L10.3938 2.9688C10.6938 2.6688 10.6938 2.1688 10.3876 1.8688Z" fill="white"/>
</svg>
